<svg width="146" height="64" viewBox="0 0 146 64" fill="none" xmlns="http://www.w3.org/2000/svg">
<g clip-path="url(#clip0_8611_4342)">
<path d="M41.8958 41.3775C41.6912 40.8032 41.4521 40.2476 41.2248 39.7328C40.8746 38.941 40.5079 38.1476 40.1532 37.3807L40.1251 37.3199C36.9617 30.4693 33.5662 23.525 30.0334 16.6802L29.8834 16.3896C29.523 15.6906 29.1505 14.9679 28.7681 14.2577C28.3147 13.359 27.7646 12.5123 27.1274 11.7326C26.4101 10.8769 25.5135 10.1888 24.5009 9.71663C23.4882 9.24449 22.384 9 21.2663 9C20.1485 9 19.0445 9.24504 18.0318 9.71744C17.0193 10.1898 16.1228 10.8782 15.4058 11.7341C14.7694 12.514 14.2196 13.3605 13.766 14.2588C13.3804 14.9753 13.0043 15.7047 12.6407 16.4101L12.5015 16.6801C8.96844 23.5255 5.57305 30.4697 2.40963 37.3197L2.36353 37.4194C2.01498 38.1738 1.65461 38.954 1.31031 39.7325C1.0828 40.2469 0.84402 40.8021 0.639214 41.3778C0.0526168 42.9462 -0.134305 44.6355 0.0952499 46.2938C0.338689 47.9697 1.01653 49.5533 2.06163 50.8873C3.10673 52.2213 4.48285 53.2596 6.05367 53.8995C7.24014 54.3795 8.50876 54.6248 9.789 54.622C10.1912 54.622 10.593 54.5985 10.9924 54.552C12.6116 54.3457 14.1733 53.8188 15.5858 53.0023C17.4386 51.9614 19.2685 50.4359 21.2674 48.256C23.2664 50.4359 25.0962 51.9614 26.9491 53.0023C28.3615 53.8189 29.9232 54.3457 31.5423 54.552C31.9418 54.5985 32.3437 54.622 32.7459 54.622C34.026 54.6248 35.2945 54.3795 36.4809 53.8995C38.0517 53.2596 39.428 52.2213 40.4731 50.8873C41.5183 49.5533 42.1962 47.9699 42.4397 46.2938C42.669 44.6353 42.4821 42.946 41.8958 41.3775ZM21.2674 43.754C18.7928 40.6173 17.2049 37.7045 16.6478 35.2626C16.4195 34.3476 16.3656 33.3979 16.4889 32.463C16.5863 31.7776 16.8381 31.1232 17.2253 30.549C17.7018 29.9311 18.3141 29.4307 19.015 29.0864C19.7158 28.7422 20.4866 28.5631 21.2677 28.5631C22.049 28.5631 22.8196 28.7423 23.5204 29.0868C24.2213 29.4311 24.8335 29.9315 25.3099 30.5494C25.6972 31.124 25.9489 31.7784 26.0463 32.4638C26.1693 33.3992 26.1153 34.3492 25.8866 35.2644C25.3289 37.7061 23.7414 40.618 21.2674 43.754ZM39.5494 45.881C39.3792 47.0527 38.9052 48.1599 38.1745 49.0926C37.4437 50.0254 36.4815 50.7515 35.3831 51.1989C34.2725 51.6439 33.0673 51.8016 31.8794 51.6573C30.6446 51.4982 29.4546 51.0919 28.381 50.4624C26.7318 49.5359 25.0623 48.1134 23.1837 46.0268C26.1743 42.3391 28.0418 38.9401 28.7333 35.9127C29.0445 34.6396 29.112 33.3192 28.9322 32.0213C28.7691 30.9031 28.3539 29.8364 27.7181 28.9016C26.9732 27.8931 26.0014 27.0732 24.8811 26.5082C23.7606 25.9432 22.523 25.6488 21.2677 25.6488C20.0125 25.6488 18.7747 25.943 17.6543 26.5079C16.5338 27.0727 15.5621 27.8925 14.8172 28.901C14.1814 29.8356 13.7663 30.902 13.6031 32.0199C13.4232 33.3174 13.4903 34.637 13.8008 35.9097C14.4918 38.9384 16.3595 42.3383 19.3511 46.0271C17.4725 48.1134 15.803 49.5359 14.1538 50.4626C13.0802 51.0919 11.8903 51.4983 10.6555 51.6573C9.46749 51.8016 8.26222 51.6439 7.15153 51.1989C6.0532 50.7515 5.09102 50.0254 4.36029 49.0928C3.62959 48.1599 3.15569 47.0527 2.98555 45.881C2.82189 44.6898 2.96117 43.4767 3.39054 42.3534C3.55375 41.8946 3.74475 41.4444 3.98137 40.9095C4.31613 40.1527 4.67136 39.3835 5.01498 38.6398L5.06113 38.5398C8.20687 31.7282 11.5834 24.8226 15.0972 18.0145L15.237 17.7435C15.5947 17.0494 15.9647 16.3318 16.338 15.6384C16.6949 14.9237 17.1271 14.249 17.6271 13.6255C18.07 13.0903 18.626 12.6595 19.2552 12.3637C19.8845 12.0679 20.5714 11.9144 21.2668 11.9144C21.9623 11.9144 22.6493 12.0677 23.2785 12.3634C23.9078 12.659 24.4638 13.0898 24.9069 13.6249C25.4072 14.2479 25.8394 14.9225 26.1962 15.6371C26.566 16.3244 26.9327 17.0355 27.2874 17.7232L27.4376 18.0148C30.9512 24.8221 34.3277 31.7276 37.4738 38.5404L37.5021 38.6017C37.8517 39.358 38.2131 40.1397 38.5534 40.9097C38.7904 41.4454 38.9817 41.896 39.1445 42.3531C39.5737 43.4765 39.713 44.6897 39.5494 45.881Z" fill="#FAEEDC"/>
<path d="M59.4292 43.387C58.29 43.387 57.242 43.1586 56.2849 42.7019C55.328 42.2453 54.5078 41.6059 53.7785 40.7838C53.0494 39.9619 52.5027 39.0028 52.0925 37.9525C51.6823 36.8565 51.5 35.6692 51.5 34.3905C51.5 33.1118 51.728 31.8787 52.138 30.7826C52.5482 29.6867 53.1405 28.7276 53.8698 27.86C54.5989 27.0379 55.4647 26.3529 56.4672 25.8962C57.4698 25.4396 58.5179 25.2112 59.7027 25.2112C60.842 25.2112 61.8445 25.4396 62.7559 25.9418C63.6674 26.3986 64.3965 27.0835 64.9889 27.9512L65.1256 25.7136H69.3181V42.9302H65.1256L64.9889 40.4185C64.3965 41.3318 63.6218 42.0625 62.6192 42.6105C61.7078 43.113 60.6141 43.387 59.4292 43.387ZM60.523 39.2769C61.3432 39.2769 62.0723 39.0485 62.7559 38.6374C63.3939 38.1808 63.8952 37.5871 64.3054 36.8565C64.6699 36.1258 64.8521 35.2581 64.8521 34.2991C64.8521 33.34 64.6699 32.4723 64.3054 31.7417C63.9408 31.011 63.3939 30.4173 62.7559 29.9607C62.118 29.5039 61.3432 29.3213 60.523 29.3213C59.7027 29.3213 58.9736 29.5497 58.29 29.9607C57.6521 30.4173 57.1509 31.011 56.7407 31.7417C56.3761 32.4723 56.1938 33.34 56.1938 34.2991C56.1938 35.2581 56.3761 36.1258 56.7407 36.8565C57.1052 37.5871 57.6521 38.1808 58.29 38.6374C58.9736 39.0485 59.7027 39.2769 60.523 39.2769ZM76.4726 21.0554C76.4726 21.5578 76.3815 22.0145 76.1536 22.3798C75.9257 22.7451 75.6068 23.0648 75.1966 23.2932C74.7865 23.5214 74.3308 23.6128 73.8752 23.6128C73.4194 23.6128 72.9637 23.5214 72.5536 23.2932C72.1434 23.0648 71.8245 22.7451 71.5966 22.3798C71.3687 21.9688 71.2776 21.5578 71.2776 21.0554C71.2776 20.5531 71.3687 20.0964 71.5966 19.7311C71.8245 19.3201 72.1434 19.0461 72.5536 18.8177C72.9637 18.5894 73.4194 18.498 73.8752 18.498C74.3308 18.498 74.7865 18.5894 75.1966 18.8177C75.6068 19.0461 75.9257 19.3657 76.1536 19.7311C76.3359 20.0964 76.4726 20.5074 76.4726 21.0554ZM71.5966 42.8846V25.6678H76.1536V42.8846H71.5966ZM88.3209 30.189V30.2346C88.0931 30.1433 87.8197 30.0976 87.5917 30.0519C87.3184 30.0063 87.0904 30.0063 86.8171 30.0063C85.5411 30.0063 84.5841 30.3716 83.9461 31.148C83.2626 31.9243 82.9435 33.0204 82.9435 34.4361V42.8846H78.3866V25.6678H82.579L82.7157 28.271C83.1715 27.3575 83.7183 26.6725 84.493 26.1702C85.2221 25.6678 86.0879 25.4396 87.0904 25.4396C87.4095 25.4396 87.7284 25.4852 88.0019 25.5308C88.1386 25.5766 88.2297 25.5766 88.3209 25.6222V30.189ZM90.1437 42.8846V18.5894H94.7008V27.86C95.3387 27.0379 96.0678 26.3985 96.9793 25.8962C97.8907 25.4396 98.8933 25.1655 100.033 25.1655C101.172 25.1655 102.22 25.3938 103.177 25.8506C104.134 26.3072 104.954 26.9465 105.683 27.7686C106.412 28.5906 106.959 29.5497 107.369 30.6C107.779 31.696 107.962 32.8834 107.962 34.1621C107.962 35.4408 107.734 36.6738 107.324 37.7698C106.914 38.8658 106.321 39.8249 105.592 40.6926C104.863 41.5146 103.997 42.1995 102.995 42.6563C101.992 43.113 100.944 43.3412 99.7591 43.3412C98.6198 43.3412 97.6173 43.113 96.7058 42.6105C95.7944 42.1539 95.0653 41.4689 94.4729 40.6012L94.3362 42.8389L90.1437 42.8846ZM98.9388 39.2769C99.7591 39.2769 100.488 39.0485 101.172 38.6374C101.81 38.1808 102.311 37.5871 102.721 36.8565C103.086 36.1258 103.268 35.2581 103.268 34.2991C103.268 33.34 103.086 32.4723 102.721 31.7417C102.311 31.011 101.81 30.4173 101.172 29.9607C100.534 29.5039 99.7591 29.3213 98.9388 29.3213C98.1186 29.3213 97.3895 29.5497 96.7058 29.9607C96.0679 30.4173 95.5666 31.011 95.1564 31.7417C94.7919 32.4723 94.6097 33.34 94.6097 34.2991C94.6097 35.2581 94.7919 36.1258 95.1564 36.8565C95.521 37.5871 96.0679 38.1808 96.7058 38.6374C97.3895 39.0485 98.1186 39.2769 98.9388 39.2769ZM109.693 42.8846V25.6678H113.886L114.023 27.9056C114.524 27.0835 115.207 26.4442 116.073 25.9418C116.939 25.4396 117.942 25.2112 119.081 25.2112C120.357 25.2112 121.451 25.5308 122.362 26.1246C123.319 26.7183 124.048 27.5859 124.549 28.682C125.051 29.7779 125.324 31.1022 125.324 32.6093V42.9302H120.767V33.203C120.767 32.0157 120.494 31.0566 119.947 30.3716C119.4 29.6867 118.671 29.3213 117.714 29.3213C117.03 29.3213 116.438 29.4583 115.891 29.7779C115.39 30.0976 114.98 30.5086 114.661 31.1024C114.342 31.6503 114.205 32.3353 114.205 33.0204V42.8846H109.693ZM127.602 42.8846V18.5894H132.16V27.86C132.798 27.0379 133.527 26.3985 134.438 25.8962C135.35 25.4396 136.352 25.1655 137.491 25.1655C138.631 25.1655 139.679 25.3938 140.636 25.8506C141.593 26.3072 142.413 26.9465 143.142 27.7686C143.872 28.5906 144.418 29.5497 144.828 30.6C145.239 31.696 145.42 32.8834 145.42 34.1621C145.42 35.4408 145.193 36.6738 144.783 37.7698C144.372 38.8658 143.78 39.8249 143.051 40.6926C142.322 41.5146 141.456 42.1995 140.453 42.6563C139.451 43.113 138.403 43.3412 137.218 43.3412C136.079 43.3412 135.076 43.113 134.165 42.6105C133.253 42.1539 132.524 41.4689 131.932 40.6012L131.795 42.8389L127.602 42.8846ZM136.443 39.2769C137.263 39.2769 137.993 39.0485 138.676 38.6374C139.314 38.1808 139.815 37.5871 140.226 36.8565C140.59 36.1258 140.772 35.2581 140.772 34.2991C140.772 33.34 140.59 32.4723 140.226 31.7417C139.861 31.011 139.314 30.4173 138.676 29.9607C138.038 29.5039 137.263 29.3213 136.443 29.3213C135.623 29.3213 134.894 29.5497 134.21 29.9607C133.572 30.4173 133.071 31.011 132.661 31.7417C132.251 32.4723 132.114 33.34 132.114 34.2991C132.114 35.2581 132.296 36.1258 132.661 36.8565C133.025 37.5871 133.572 38.1808 134.21 38.6374C134.894 39.0485 135.577 39.2769 136.443 39.2769Z" fill="#FAEEDC"/>
</g>
<defs>
<clipPath id="clip0_8611_4342">
<rect width="145.42" height="45.7278" fill="white" transform="translate(0 9)"/>
</clipPath>
</defs>
</svg>
