<svg width="121" height="64" viewBox="0 0 121 64" fill="none" xmlns="http://www.w3.org/2000/svg">
<path d="M27.1638 29.8306V40.9708C27.1638 41.1513 27.0913 41.3245 26.9622 41.4522C26.8331 41.5799 26.658 41.6516 26.4754 41.6516H22.92C22.7375 41.6515 22.5624 41.5798 22.4334 41.4521C22.3043 41.3244 22.2317 41.1513 22.2316 40.9708V22.8508C22.2316 22.6702 22.3042 22.4971 22.4333 22.3694C22.5624 22.2417 22.7375 22.1699 22.92 22.1699H26.2101C26.3927 22.1699 26.5678 22.2417 26.6969 22.3694C26.826 22.4971 26.8985 22.6702 26.8985 22.8508V25.4026C26.8985 25.4026 28.0746 21.7626 31.5651 21.7626C31.5651 21.7626 35.0176 21.3498 36.4213 25.1399C36.4213 25.1399 37.5975 21.7626 41.1638 21.7626C41.1638 21.7626 46.4674 21.4506 46.4674 26.8787L46.5078 29.8682V41.0083C46.5078 41.1889 46.4353 41.362 46.3062 41.4897C46.1771 41.6174 46.002 41.6891 45.8194 41.6891H42.2637C42.0812 41.6891 41.9062 41.6173 41.7771 41.4896C41.648 41.362 41.5754 41.1888 41.5754 41.0083L41.5429 28.855C41.644 26.103 39.3931 26.3032 39.3931 26.3032C36.5604 26.3533 36.8329 29.8682 36.8329 29.8682V41.0083C36.8329 41.1889 36.7604 41.362 36.6313 41.4897C36.5022 41.6174 36.3271 41.6891 36.1445 41.6891H32.5891C32.4066 41.6891 32.2316 41.6173 32.1025 41.4896C31.9734 41.362 31.9009 41.1888 31.9008 41.0083V29.13C31.9008 29.13 32.1087 26.278 29.5792 26.278C29.5795 26.278 27.0755 25.9529 27.1638 29.8306ZM118.812 29.7973V40.9371C118.812 41.1177 118.74 41.2908 118.61 41.4185C118.481 41.5462 118.306 41.6179 118.124 41.618L114.426 41.6888C114.243 41.6888 114.068 41.617 113.939 41.4893C113.81 41.3617 113.738 41.1885 113.738 41.008V29.13C113.738 29.13 113.946 26.278 111.416 26.278C111.416 26.278 109.001 26.1603 109.001 30.6319V40.9705C109.001 41.151 108.928 41.3241 108.799 41.4518C108.67 41.5795 108.495 41.6512 108.312 41.6513H104.757C104.574 41.6512 104.399 41.5795 104.27 41.4518C104.141 41.3241 104.068 41.151 104.068 40.9705V22.8508C104.068 22.6703 104.141 22.4971 104.27 22.3695C104.399 22.2418 104.574 22.17 104.757 22.1699H108.047C108.229 22.1699 108.404 22.2417 108.533 22.3694C108.663 22.4971 108.735 22.6702 108.735 22.8508V25.4026C108.735 25.4026 109.911 21.7626 113.402 21.7626C113.402 21.7626 117.141 21.2015 118.4 25.0694C118.4 25.0691 118.812 25.867 118.812 29.7973ZM93.1407 21.6875C88.594 21.6875 84.9078 25.4776 84.9078 31.857C84.9078 37.4736 87.7533 42.0266 93.1407 42.0266C98.2246 42.0266 101.374 37.4736 101.374 31.857C101.374 25.5902 97.6877 21.6875 93.1407 21.6875ZM96.0105 32.0822C96.0105 34.4839 95.707 35.7597 95.707 35.7597C95.2751 38.2986 93.4118 38.3022 93.1371 38.2887C92.8405 38.3004 90.9615 38.274 90.5727 35.7597C90.5727 35.7597 90.2691 34.4839 90.2691 32.0822V31.682C90.2691 29.2804 90.5727 28.0045 90.5727 28.0045C90.9615 25.4902 92.8408 25.4638 93.1371 25.4752C93.4118 25.4617 95.2751 25.465 95.707 28.0045C95.707 28.0045 96.0105 29.2804 96.0105 31.682V32.0822ZM82.8442 25.3774V22.7776C82.8441 22.597 82.7716 22.4239 82.6425 22.2962C82.5134 22.1685 82.3384 22.0968 82.1558 22.0967H70.4037C70.2211 22.0967 70.046 22.1684 69.9169 22.2961C69.7878 22.4238 69.7153 22.597 69.7153 22.7776V25.3572C69.7154 25.5378 69.7879 25.7109 69.917 25.8386C70.0461 25.9663 70.2211 26.038 70.4037 26.0381H76.5338L69.2779 36.4493C69.2779 36.4493 68.992 36.8714 69.0014 37.3376V40.5045C69.0014 40.5045 68.9541 41.5904 70.1991 40.9602C70.1991 40.9602 72.4105 39.6387 76.1186 39.6387C76.1186 39.6387 79.7805 39.5937 82.222 41.074C82.222 41.074 83.2355 41.5297 83.2355 40.5276V37.7711C83.2355 37.7711 83.3274 37.0416 82.3601 36.5862C82.3601 36.5862 79.5501 35.06 75.8652 35.3103L82.8442 25.3774ZM19.4876 38.4112L18.3746 36.7354C18.0204 36.1098 18.0458 35.4091 18.0458 35.4091V27.6791C18.1976 20.9994 10.7108 21.5749 10.7108 21.5749C4.05525 21.5749 3.07216 26.698 3.07216 26.698C2.79474 27.728 3.60149 27.7529 3.60149 27.7529L6.85367 28.0792C6.85367 28.0792 7.4082 28.2047 7.61003 27.5518C7.61003 27.5518 8.0383 25.3167 10.4333 25.3167C13.0393 25.3167 13.0123 27.529 13.0123 27.529V29.3809C7.81005 29.553 5.39922 30.9813 5.39922 30.9813C2.1871 32.7826 2.38925 36.3602 2.38925 36.3602C2.38925 42.189 8.0043 41.9386 8.0043 41.9386C11.5958 41.9386 13.7204 39.337 13.7204 39.337C14.3527 40.4382 15.5163 41.4883 15.5163 41.4883C16.0985 42.1127 16.7052 41.5886 16.7052 41.5886L19.3358 39.3622C19.9173 38.9365 19.4876 38.4112 19.4876 38.4112ZM9.75711 38.3391C8.06774 38.3391 7.43976 36.6787 7.72021 35.0468C8.00096 33.4148 9.45906 32.1323 13.0126 32.1699V33.162C13.1386 37.4964 11.1633 38.3391 9.75711 38.3391ZM66.7348 38.4112L65.6221 36.7354C65.2679 36.1098 65.2931 35.4091 65.2931 35.4091V27.6791C65.4448 20.9994 57.958 21.5749 57.958 21.5749C51.3025 21.5749 50.3194 26.698 50.3194 26.698C50.042 27.728 50.8487 27.7529 50.8487 27.7529L54.1009 28.0792C54.1009 28.0792 54.6554 28.2047 54.8573 27.5518C54.8573 27.5518 55.2855 25.3167 57.6806 25.3167C60.2866 25.3167 60.2595 27.529 60.2595 27.529V29.3809C55.0576 29.553 52.6464 30.9813 52.6464 30.9813C49.4343 32.7826 49.6365 36.3602 49.6365 36.3602C49.6365 42.189 55.2515 41.9386 55.2515 41.9386C58.843 41.9386 60.9677 39.337 60.9677 39.337C61.6002 40.4382 62.7633 41.4883 62.7633 41.4883C63.3454 42.1127 63.9524 41.5886 63.9524 41.5886L66.5827 39.3622C67.1646 38.9365 66.7348 38.4112 66.7348 38.4112ZM57.0043 38.3391C55.315 38.3391 54.687 36.6787 54.9674 35.0468C55.2482 33.4148 56.7063 32.1323 60.2595 32.1699V33.162C60.3858 37.4964 58.4108 38.3391 57.0043 38.3391Z" fill="#FAEEDC"/>
<path d="M75.6878 53.0431C75.6878 53.0431 75.3903 53.555 75.7557 53.6694C75.7557 53.6694 76.1685 53.8288 76.6833 53.3562C76.6833 53.3562 80.4375 50.1125 80.5279 44.2068C80.5279 44.2068 80.5556 43.4692 80.2563 43.2675C80.2563 43.2675 79.0802 42.2384 74.851 42.5515C74.851 42.5515 71.1644 42.7976 69.1518 44.565C69.1518 44.565 68.9709 44.7214 68.9709 44.9225C68.9709 44.9225 68.9275 45.3569 70.0339 45.1687C70.0339 45.1687 73.7201 44.6538 75.9139 44.9225C75.9139 44.9225 77.0451 45.0567 77.3617 45.4374C77.3617 45.4374 77.8819 45.8625 77.6102 47.2713C77.6102 47.2719 76.8636 50.851 75.6878 53.0431Z" fill="#FAEEDC"/>
<path d="M74.9437 47.3784C74.9437 47.3784 75.4943 48.0839 74.6059 48.6925C74.6059 48.6925 65.1158 56.2006 49.1812 56.2006C49.1812 56.2006 32.7786 57.001 19.0824 44.6925C19.0824 44.6925 18.6022 44.2755 18.9003 43.8879C18.9003 43.8879 19.1668 43.5313 19.8566 43.9192C19.8566 43.9192 32.7406 51.8599 49.6617 51.8599C49.6617 51.8599 61.4229 52.3103 73.4877 47.2067C73.4877 47.2067 74.449 46.7141 74.9437 47.3784Z" fill="#FAEEDC"/>
</svg>
