<svg fill="none" height="300" viewBox="0 0 560 300" width="560" xmlns="http://www.w3.org/2000/svg" xmlns:xlink="http://www.w3.org/1999/xlink"><filter id="a" color-interpolation-filters="sRGB" filterUnits="userSpaceOnUse" height="453.743" width="309.906" x="191.427" y="13.7378"><feFlood flood-opacity="0" result="BackgroundImageFix"/><feColorMatrix in="SourceAlpha" result="hardAlpha" type="matrix" values="0 0 0 0 0 0 0 0 0 0 0 0 0 0 0 0 0 0 127 0"/><feOffset dy="6.2622"/><feGaussianBlur stdDeviation="6.2622"/><feColorMatrix type="matrix" values="0 0 0 0 0 0 0 0 0 0 0 0 0 0 0 0 0 0 0.06 0"/><feBlend in2="BackgroundImageFix" mode="normal" result="effect1_dropShadow_8611_4626"/><feColorMatrix in="SourceAlpha" result="hardAlpha" type="matrix" values="0 0 0 0 0 0 0 0 0 0 0 0 0 0 0 0 0 0 127 0"/><feOffset dy="23.2596"/><feGaussianBlur stdDeviation="11.6298"/><feColorMatrix type="matrix" values="0 0 0 0 0 0 0 0 0 0 0 0 0 0 0 0 0 0 0.05 0"/><feBlend in2="effect1_dropShadow_8611_4626" mode="normal" result="effect2_dropShadow_8611_4626"/><feColorMatrix in="SourceAlpha" result="hardAlpha" type="matrix" values="0 0 0 0 0 0 0 0 0 0 0 0 0 0 0 0 0 0 127 0"/><feOffset dy="52.7814"/><feGaussianBlur stdDeviation="15.6555"/><feColorMatrix type="matrix" values="0 0 0 0 0 0 0 0 0 0 0 0 0 0 0 0 0 0 0.03 0"/><feBlend in2="effect2_dropShadow_8611_4626" mode="normal" result="effect3_dropShadow_8611_4626"/><feColorMatrix in="SourceAlpha" result="hardAlpha" type="matrix" values="0 0 0 0 0 0 0 0 0 0 0 0 0 0 0 0 0 0 127 0"/><feOffset dy="93.9331"/><feGaussianBlur stdDeviation="18.7866"/><feColorMatrix type="matrix" values="0 0 0 0 0 0 0 0 0 0 0 0 0 0 0 0 0 0 0.01 0"/><feBlend in2="effect3_dropShadow_8611_4626" mode="normal" result="effect4_dropShadow_8611_4626"/><feBlend in="SourceGraphic" in2="effect4_dropShadow_8611_4626" mode="normal" result="shape"/></filter><clipPath id="b"><path d="m0 4c0-2.20914 1.79086-4 4-4h552c2.209 0 4 1.79086 4 4v292c0 2.209-1.791 4-4 4h-552.00001c-2.20914 0-3.99999-1.791-3.99999-4z"/></clipPath><clipPath id="c"><rect height="315.975" rx="9.39437" width="234.76" x="229" y="20"/></clipPath><clipPath id="d"><path d="m295.76 43.0801h153.909v20.5983h-153.909z"/></clipPath><clipPath id="e"><path d="m282.242 104.828h167.425v17.3352h-167.425z"/></clipPath><clipPath id="f"><path d="m282.242 143.979h167.425v17.3352h-167.425z"/></clipPath><clipPath id="g"><path d="m282.242 183.131h167.425v17.3352h-167.425z"/></clipPath><clipPath id="h"><path d="m282.238 222.279h167.43v17.3352h-167.43z"/></clipPath><clipPath id="i"><path d="m282.238 261.426h167.43v17.3352h-167.43z"/></clipPath><mask id="j" fill="#fff"><path d="m0 4c0-2.20914 1.79086-4 4-4h552c2.209 0 4 1.79086 4 4v292c0 2.209-1.791 4-4 4h-552.00001c-2.20914 0-3.99999-1.791-3.99999-4z" fill="#fff"/></mask><g clip-path="url(#b)"><path d="m0 4c0-2.20914 1.79086-4 4-4h552c2.209 0 4 1.79086 4 4v292c0 2.209-1.791 4-4 4h-552.00001c-2.20914 0-3.99999-1.791-3.99999-4z" fill="#1a4740"/><g stroke="#20917e" stroke-width="1.38789"><rect height="35.6121" rx="17.8061" width="144.612" x="483.694" y="140.694"/><rect height="35.6121" rx="17.8061" width="144.612" x="-98.3061" y="147.694"/><rect height="34.6121" rx="17.3061" width="338.612" x="164.694" y="193.694"/></g><g filter="url(#a)"><g clip-path="url(#c)"><path d="m0 0h234.76v66.7589h-234.76z" fill="#20917e" transform="translate(229 20)"/><circle cx="262.696" cy="53.0633" fill="#2b645c" r="19.2879"/><g fill="#faeedc"><path d="m257.67 42.8125c.421 0 .761.3275.761.7317v1.4756c.675-.0122 1.432-.0122 2.284-.0122h4.058c.851 0 1.608 0 2.283.0132v-1.4756c0-.4042.341-.7327.761-.7327.421 0 .761.3275.761.7317v1.5423c1.461.1121 2.42.3881 3.123 1.0662.706.6771.993 1.5988 1.109 3.0037l.081.7307h-20.213v-.7318c.117-1.4048.404-2.3265 1.108-3.0036.705-.6771 1.663-.9541 3.123-1.0662v-1.5413c0-.4042.341-.7317.761-.7317z"/><path d="m272.891 54.94v-2.0213c0-.848-.004-2.3599-.017-3.032h-20.186c-.013.6721-.01 2.184-.01 3.032v2.0213c0 3.8111 0 5.7172 1.185 6.9007 1.184 1.1835 3.088 1.1845 6.9 1.1845h4.043c3.81 0 5.716 0 6.901-1.1845 1.184-1.1845 1.184-3.0886 1.184-6.9007z" opacity=".5"/><path d="m268.847 57.9712c0 .2681-.107.5251-.296.7147-.19.1895-.447.296-.715.296s-.525-.1065-.715-.296c-.189-.1896-.296-.4466-.296-.7147 0-.268.107-.5251.296-.7146.19-.1896.447-.296.715-.296s.525.1064.715.296c.189.1895.296.4466.296.7146zm0-4.0426c0 .2681-.107.5251-.296.7147-.19.1895-.447.296-.715.296s-.525-.1065-.715-.296c-.189-.1896-.296-.4466-.296-.7147 0-.268.107-.5251.296-.7146.19-.1896.447-.296.715-.296s.525.1064.715.296c.189.1895.296.4466.296.7146zm-5.054 4.0426c0 .2681-.106.5251-.296.7147-.189.1895-.446.296-.714.296s-.525-.1065-.715-.296c-.19-.1896-.296-.4466-.296-.7147 0-.268.106-.5251.296-.7146.19-.1896.447-.296.715-.296s.525.1064.714.296c.19.1895.296.4466.296.7146zm0-4.0426c0 .2681-.106.5251-.296.7147-.189.1895-.446.296-.714.296s-.525-.1065-.715-.296c-.19-.1896-.296-.4466-.296-.7147 0-.268.106-.5251.296-.7146.19-.1896.447-.296.715-.296s.525.1064.714.296c.19.1895.296.4466.296.7146zm-5.053 4.0426c0 .2681-.106.5251-.296.7147-.189.1895-.447.296-.715.296s-.525-.1065-.714-.296c-.19-.1896-.296-.4466-.296-.7147 0-.268.106-.5251.296-.7146.189-.1896.446-.296.714-.296s.526.1064.715.296c.19.1895.296.4466.296.7146zm0-4.0426c0 .2681-.106.5251-.296.7147-.189.1895-.447.296-.715.296s-.525-.1065-.714-.296c-.19-.1896-.296-.4466-.296-.7147 0-.268.106-.5251.296-.7146.189-.1896.446-.296.714-.296s.526.1064.715.296c.19.1895.296.4466.296.7146z"/><g clip-path="url(#d)"><rect height="4.11966" rx="2.05983" width="88.0577" x="295.76" y="43.0801"/><rect height="4.11966" rx="2.05983" width="153.909" x="295.76" y="51.3203"/><rect height="4.11966" rx="2.05983" width="153.909" x="295.76" y="59.5586"/></g><path d="m0 0h234.76v249.216h-234.76z" transform="translate(229 86.7578)"/></g><circle cx="255.944" cy="113.286" fill="#6fd9c1" r="12.6454"/><path d="m250.701 114.359 2.083 2.386 5.206-5.964" opacity=".5" stroke="#1a4740" stroke-linecap="round" stroke-linejoin="round" stroke-width=".851906"/><path d="m261.303 110.824-5.679 5.964-.284-.373" stroke="#1a4740" stroke-linecap="round" stroke-linejoin="round" stroke-width=".851906"/><g clip-path="url(#e)" fill="#20917e"><rect height="3.03195" rx="1.51597" width="88.0577" x="282.242" y="104.828"/><rect height="3.03195" rx="1.51597" width="167.425" x="282.242" y="111.98"/><rect height="3.03195" rx="1.51597" width="129.074" x="282.242" y="119.131"/></g><circle cx="255.944" cy="152.436" fill="#6fd9c1" r="12.6454"/><path d="m250.701 153.506 2.083 2.385 5.206-5.963" opacity=".5" stroke="#1a4740" stroke-linecap="round" stroke-linejoin="round" stroke-width=".851906"/><path d="m261.303 149.971-5.679 5.963-.284-.373" stroke="#1a4740" stroke-linecap="round" stroke-linejoin="round" stroke-width=".851906"/><g clip-path="url(#f)" fill="#20917e"><rect height="3.03195" rx="1.51597" width="88.0577" x="282.242" y="143.979"/><rect height="3.03195" rx="1.51597" width="167.425" x="282.242" y="151.131"/><rect height="3.03195" rx="1.51597" width="129.074" x="282.242" y="158.281"/></g><circle cx="255.944" cy="191.589" fill="#6fd9c1" r="12.6454"/><path d="m250.701 192.66 2.083 2.385 5.206-5.963" opacity=".5" stroke="#1a4740" stroke-linecap="round" stroke-linejoin="round" stroke-width=".851906"/><path d="m261.303 189.125-5.679 5.963-.284-.373" stroke="#1a4740" stroke-linecap="round" stroke-linejoin="round" stroke-width=".851906"/><g clip-path="url(#g)" fill="#20917e"><rect height="3.03195" rx="1.51597" width="88.0577" x="282.242" y="183.131"/><rect height="3.03195" rx="1.51597" width="167.425" x="282.242" y="190.281"/><rect height="3.03195" rx="1.51597" width="129.074" x="282.242" y="197.434"/></g><g fill="#f4d8b4"><circle cx="255.942" cy="230.741" r="12.6432"/><g clip-path="url(#h)"><rect height="3.03195" rx="1.51597" width="88.0577" x="282.238" y="222.279"/><rect height="3.03195" rx="1.51597" width="167.43" x="282.238" y="229.432"/><rect height="3.03195" rx="1.51597" width="119.545" x="282.238" y="236.582"/></g><circle cx="255.942" cy="269.885" r="12.6432"/><g clip-path="url(#i)"><rect height="3.03195" rx="1.51597" width="88.0577" x="282.238" y="261.426"/><rect height="3.03195" rx="1.51597" width="167.43" x="282.238" y="268.578"/><rect height="3.03195" rx="1.51597" width="119.545" x="282.238" y="275.729"/></g><circle cx="255.942" cy="309.032" r="12.6432"/></g></g></g><rect fill="#2b645c" height="84" rx="6.14338" width="176.362" x="347" y="169"/><circle cx="389.489" cy="210.514" fill="#20917e" r="29.7132"/><path d="m374.201 211.183c0-7.24 0-10.86 2.249-13.11 2.251-2.249 5.87-2.249 13.11-2.249s10.86 0 13.108 2.249c2.25 2.251 2.25 5.87 2.25 13.11s0 10.86-2.25 13.108c-2.247 2.25-5.868 2.25-13.108 2.25s-10.86 0-13.11-2.25c-2.249-2.247-2.249-5.868-2.249-13.108z" fill="#faeedc" opacity=".5"/><path d="m393.398 209.261c-.306 0-.599-.122-.815-.338s-.337-.509-.337-.814c0-.306.121-.599.337-.815s.509-.337.815-.337h3.839c.306 0 .599.121.815.337s.337.509.337.815v3.84c0 .305-.121.598-.337.814s-.509.337-.815.337c-.305 0-.598-.121-.814-.337s-.337-.509-.337-.814v-1.06l-3.092 3.091c-.504.504-1.187.787-1.9.787-.712 0-1.396-.283-1.9-.787l-2.436-2.435c-.035-.036-.078-.065-.124-.084-.047-.019-.097-.029-.147-.029-.051 0-.101.01-.148.029-.046.019-.089.048-.124.084l-3.522 3.521c-.218.204-.507.315-.806.309-.298-.005-.583-.126-.794-.337s-.332-.496-.337-.794c-.005-.299.106-.587.309-.806l3.522-3.521c.504-.504 1.187-.787 1.9-.787.712 0 1.395.283 1.899.787l2.436 2.435c.036.036.078.065.125.084s.097.029.147.029c.051 0 .101-.01.147-.029.047-.019.089-.048.125-.084l3.09-3.091z" fill="#faeedc"/><g fill="#20917e"><rect height="18.5251" rx="2.74445" width="13.0362" x="431" y="222.188"/><rect height="15.7806" rx="2.74445" width="13.0362" x="447.76" y="224.932"/><rect height="28.1307" rx="2.74445" width="13.0362" x="464.52" y="212.582"/><rect height="43.9113" rx="2.74445" width="13.0362" x="481.279" y="196.801"/><rect height="53.0956" rx="2.74445" width="13.0362" x="498.039" y="187.617"/></g><path d="m36.768 55.416c-1.1733 0-2.6347-.3413-4.384-1.024-1.728-.704-3.2853-1.92-4.672-3.648-1.3653-1.728-2.048-4.032-2.048-6.912 0-1.7493.3947-3.6053 1.184-5.568.8107-1.9627 2.0373-3.6267 3.68-4.992s3.6587-2.048 6.048-2.048c.7467 0 1.4187.0747 2.016.224s1.248.3733 1.952.672c.6187.256 1.0987.384 1.44.384.6187 0 1.2267-.3093 1.824-.928l1.28 5.408c.0213.1067.032.224.032.352 0 .064-.0213.1173-.064.16-.0213.0213-.064.0427-.128.064-.064.0427-.1387.064-.224.064-.128 0-.2453-.064-.352-.192-.704-1.024-1.376-1.8773-2.016-2.56s-1.44-1.2693-2.4-1.76c-.9387-.4907-2.0373-.736-3.296-.736-1.9627 0-3.4667.7573-4.512 2.272s-1.728 3.1467-2.048 4.896-.48 3.232-.48 4.448c0 2.048.3947 3.8613 1.184 5.44.7893 1.5573 1.7493 2.7627 2.88 3.616s2.1867 1.28 3.168 1.28c1.408 0 2.4747-.2987 3.2-.896.7467-.6187 1.2267-1.3867 1.44-2.304.192-.8107.288-1.5467.288-2.208 0-.2347-.0213-.5653-.064-.992-.064-.5333-.2987-.9707-.704-1.312-.4053-.3627-1.2373-.544-2.496-.544-.1707 0-.256-.1387-.256-.416 0-.1493.0107-.256.032-.32.0427-.064.1173-.096.224-.096h9.376c.1707 0 .256.1387.256.416s-.0853.416-.256.416c-.7467 0-1.3867.1707-1.92.512-.512.32-.8107.8-.896 1.44-.0427.2987-.064.8107-.064 1.536 0 1.1307.032 2.6027.096 4.416-.128-.0213-.32-.032-.576-.032-.704 0-1.344.064-1.92.192s-1.2267.3093-1.952.544-1.376.416-1.952.544-1.216.192-1.92.192zm23.4768-16.224c.768 0 1.408.2133 1.92.64s.768.928.768 1.504c0 .4267-.16.7893-.48 1.088s-.7147.448-1.184.448c-.2774 0-.5334-.0533-.768-.16-.2134-.128-.48-.3093-.8-.544-.576-.448-1.0667-.672-1.472-.672-.4907 0-.992.2347-1.504.704s-.9814 1.0987-1.408 1.888l-.032 8.672c0 .5973.1706.992.512 1.184.3413.1707.8213.256 1.44.256h.352c.1706 0 .256.1387.256.416 0 .256-.0854.384-.256.384h-7.776c-.1494 0-.224-.128-.224-.384 0-.2773.0746-.416.224-.416h.384c.6186 0 1.088-.0853 1.408-.256.3413-.192.512-.5867.512-1.184l-.064-9.888c0-.6613-.1707-1.088-.512-1.28-.32-.192-.8747-.32-1.664-.384-.192-.0213-.288-.192-.288-.512 0-.1493.0533-.2453.16-.288.256-.0853 2.112-.4907 5.568-1.216v3.424c.6826-1.0027 1.4613-1.824 2.336-2.464.8746-.64 1.7386-.96 2.592-.96zm12.161 16.256c-1.5574 0-2.9334-.3947-4.128-1.184-1.1947-.7893-2.1227-1.8027-2.784-3.04-.64-1.2587-.96-2.56-.96-3.904 0-1.408.32-2.7307.96-3.968s1.5573-2.2293 2.752-2.976c1.1946-.768 2.5813-1.152 4.16-1.152 1.5786 0 2.9653.384 4.16 1.152 1.1946.7467 2.112 1.7387 2.752 2.976s.96 2.56.96 3.968c0 1.344-.3307 2.6453-.992 3.904-.64 1.2373-1.5574 2.2507-2.752 3.04-1.1947.7893-2.5707 1.184-4.128 1.184zm0-.992c1.3653 0 2.432-.6827 3.2-2.048.7893-1.3867 1.184-3.0827 1.184-5.088 0-2.0693-.384-3.776-1.152-5.12s-1.8454-2.016-3.232-2.016c-1.3867 0-2.464.672-3.232 2.016s-1.152 3.0507-1.152 5.12c0 2.0053.384 3.7013 1.152 5.088.7893 1.3653 1.8666 2.048 3.232 2.048zm34.8172-14.944c.17 0 .256.1387.256.416 0 .1493-.032.256-.096.32-.064.0427-.171.0747-.32.096-.534.0427-1.056.2453-1.568.608-.491.3627-.864.8427-1.12 1.44-.278.6613-1.835 5.0133-4.6722 13.056h-1.792l-3.648-10.24-3.776 10.24h-1.696l-4.896-13.344c-.4694-1.152-1.28-1.7493-2.4321-1.792-.1706 0-.256-.128-.256-.384 0-.2773.0854-.416.256-.416h7.5841c.1493 0 .224.1387.224.416 0 .256-.0854.384-.256.384-1.216.0853-1.824.4373-1.824 1.056 0 .1707.032.352.096.544l3.36 9.888 3.008-8.288-.64-1.792c-.4054-.896-1.1947-1.3653-2.368-1.408-.1707 0-.256-.128-.256-.384 0-.2773.0853-.416.256-.416h7.584c.1493 0 .224.1387.224.416 0 .256-.0854.384-.256.384-.4907 0-.9174.0853-1.28.256-.3414.1707-.512.416-.512.736 0 .128.032.288.096.48l3.2959 10.08c.5973-1.5787 1.2693-3.4453 2.0163-5.6.768-2.176 1.216-3.488 1.344-3.936.021-.0853.042-.1707.064-.256.021-.0853.032-.1707.032-.256 0-.576-.278-.9707-.832-1.184-.534-.2133-1.067-.32-1.6-.32-.15 0-.224-.128-.224-.384 0-.2773.074-.416.224-.416z" fill="#faeedc"/></g><path d="m0 0h560zm560 296c0 4.418-3.582 8-8 8h-544c-4.41828 0-8-3.582-8-8h4 552zm-560 4v-300zm560-300v300z" fill="#20917e" mask="url(#j)"/></svg>