<svg fill="none" height="300" viewBox="0 0 560 300" width="560" xmlns="http://www.w3.org/2000/svg" xmlns:xlink="http://www.w3.org/1999/xlink"><filter id="a" color-interpolation-filters="sRGB" filterUnits="userSpaceOnUse" height="400.105" width="340.747" x="219.627" y="13.2379"><feFlood flood-opacity="0" result="BackgroundImageFix"/><feColorMatrix in="SourceAlpha" result="hardAlpha" type="matrix" values="0 0 0 0 0 0 0 0 0 0 0 0 0 0 0 0 0 0 127 0"/><feOffset dy="7.22892"/><feGaussianBlur stdDeviation="7.22892"/><feColorMatrix type="matrix" values="0 0 0 0 0 0 0 0 0 0 0 0 0 0 0 0 0 0 0.06 0"/><feBlend in2="BackgroundImageFix" mode="normal" result="effect1_dropShadow_8611_4577"/><feColorMatrix in="SourceAlpha" result="hardAlpha" type="matrix" values="0 0 0 0 0 0 0 0 0 0 0 0 0 0 0 0 0 0 127 0"/><feOffset dy="26.8503"/><feGaussianBlur stdDeviation="13.4251"/><feColorMatrix type="matrix" values="0 0 0 0 0 0 0 0 0 0 0 0 0 0 0 0 0 0 0.05 0"/><feBlend in2="effect1_dropShadow_8611_4577" mode="normal" result="effect2_dropShadow_8611_4577"/><feColorMatrix in="SourceAlpha" result="hardAlpha" type="matrix" values="0 0 0 0 0 0 0 0 0 0 0 0 0 0 0 0 0 0 127 0"/><feOffset dy="60.9294"/><feGaussianBlur stdDeviation="18.0723"/><feColorMatrix type="matrix" values="0 0 0 0 0 0 0 0 0 0 0 0 0 0 0 0 0 0 0.03 0"/><feBlend in2="effect2_dropShadow_8611_4577" mode="normal" result="effect3_dropShadow_8611_4577"/><feColorMatrix in="SourceAlpha" result="hardAlpha" type="matrix" values="0 0 0 0 0 0 0 0 0 0 0 0 0 0 0 0 0 0 127 0"/><feOffset dy="108.434"/><feGaussianBlur stdDeviation="21.6867"/><feColorMatrix type="matrix" values="0 0 0 0 0 0 0 0 0 0 0 0 0 0 0 0 0 0 0.01 0"/><feBlend in2="effect3_dropShadow_8611_4577" mode="normal" result="effect4_dropShadow_8611_4577"/><feBlend in="SourceGraphic" in2="effect4_dropShadow_8611_4577" mode="normal" result="shape"/></filter><filter id="b" color-interpolation-filters="sRGB" filterUnits="userSpaceOnUse" height="172.417" width="169.032" x="163.484" y="140.414"><feFlood flood-opacity="0" result="BackgroundImageFix"/><feColorMatrix in="SourceAlpha" result="hardAlpha" type="matrix" values="0 0 0 0 0 0 0 0 0 0 0 0 0 0 0 0 0 0 127 0"/><feOffset dy="3.586"/><feGaussianBlur stdDeviation="3.586"/><feColorMatrix type="matrix" values="0 0 0 0 0 0 0 0 0 0 0 0 0 0 0 0 0 0 0.06 0"/><feBlend in2="BackgroundImageFix" mode="normal" result="effect1_dropShadow_8611_4577"/><feColorMatrix in="SourceAlpha" result="hardAlpha" type="matrix" values="0 0 0 0 0 0 0 0 0 0 0 0 0 0 0 0 0 0 127 0"/><feOffset dy="13.3194"/><feGaussianBlur stdDeviation="6.65971"/><feColorMatrix type="matrix" values="0 0 0 0 0 0 0 0 0 0 0 0 0 0 0 0 0 0 0.05 0"/><feBlend in2="effect1_dropShadow_8611_4577" mode="normal" result="effect2_dropShadow_8611_4577"/><feColorMatrix in="SourceAlpha" result="hardAlpha" type="matrix" values="0 0 0 0 0 0 0 0 0 0 0 0 0 0 0 0 0 0 127 0"/><feOffset dy="30.2248"/><feGaussianBlur stdDeviation="8.96499"/><feColorMatrix type="matrix" values="0 0 0 0 0 0 0 0 0 0 0 0 0 0 0 0 0 0 0.03 0"/><feBlend in2="effect2_dropShadow_8611_4577" mode="normal" result="effect3_dropShadow_8611_4577"/><feColorMatrix in="SourceAlpha" result="hardAlpha" type="matrix" values="0 0 0 0 0 0 0 0 0 0 0 0 0 0 0 0 0 0 127 0"/><feOffset dy="53.79"/><feGaussianBlur stdDeviation="10.758"/><feColorMatrix type="matrix" values="0 0 0 0 0 0 0 0 0 0 0 0 0 0 0 0 0 0 0.01 0"/><feBlend in2="effect3_dropShadow_8611_4577" mode="normal" result="effect4_dropShadow_8611_4577"/><feBlend in="SourceGraphic" in2="effect4_dropShadow_8611_4577" mode="normal" result="shape"/></filter><linearGradient id="c" gradientUnits="userSpaceOnUse" x1="428.135" x2="428.135" y1="226.268" y2="244.268"><stop offset="0" stop-color="#288ac8"/><stop offset="1" stop-color="#2f6a8e"/></linearGradient><linearGradient id="d" gradientUnits="userSpaceOnUse" x1="428.135" x2="428.135" y1="226.268" y2="244.268"><stop offset="0" stop-color="#57bcfa"/><stop offset="1" stop-color="#11496b"/></linearGradient><clipPath id="e"><path d="m0 4c0-2.20914 1.79086-4 4-4h552c2.209 0 4 1.79086 4 4v292c0 2.209-1.791 4-4 4h-552.00001c-2.20914 0-3.99999-1.791-3.99999-4z"/></clipPath><clipPath id="f"><rect height="241.068" rx="10.8446" width="254" x="263" y="20.4668"/></clipPath><clipPath id="g"><rect height="93.5248" rx="5.37961" width="126" x="185" y="144"/></clipPath><mask id="h" fill="#fff"><path d="m0 4c0-2.20914 1.79086-4 4-4h552c2.209 0 4 1.79086 4 4v292c0 2.209-1.791 4-4 4h-552.00001c-2.20914 0-3.99999-1.791-3.99999-4z" fill="#fff"/></mask><g clip-path="url(#e)"><path d="m0 4c0-2.20914 1.79086-4 4-4h552c2.209 0 4 1.79086 4 4v292c0 2.209-1.791 4-4 4h-552.00001c-2.20914 0-3.99999-1.791-3.99999-4z" fill="#1a4740"/><rect height="35.6121" rx="17.8061" stroke="#20917e" stroke-width="1.38789" width="144.612" x="137.694" y="210.694"/><rect height="34.6121" rx="17.3061" stroke="#20917e" stroke-width="1.38789" width="338.612" x="225.694" y="164.694"/><g filter="url(#a)"><g clip-path="url(#f)"><path d="m0 0h254v188.534h-254z" fill="#20917e" transform="translate(263 20.4668)"/><circle cx="391.281" cy="113.453" fill="#2b645c" r="78.0002"/><g fill="#faeedc"><path clip-rule="evenodd" d="m348.574 85.9668c.398-.0999.813-.1202 1.219-.0598.406.0603.796.2001 1.148.4114.353.2113.66.4899.904.8199s.421.705.521 1.1035l1.591 6.3666c1.246 4.981 3.84 9.5226 7.496 13.1266 3.657 3.605 8.235 6.133 13.234 7.307h32.979c4.209-.001 8.273 1.545 11.419 4.342s5.155 6.652 5.647 10.833l2.705 23c.048.407.015.821-.096 1.216-.112.395-.3.764-.554 1.086-.255.322-.57.591-.928.792-.358.2-.752.328-1.16.377-.408.048-.821.015-1.216-.096-.395-.112-.764-.3-1.086-.554-.323-.255-.592-.57-.792-.928-.201-.358-.329-.752-.377-1.16l-2.708-23c-.312-2.66-1.59-5.112-3.591-6.893-2.001-1.78-4.585-2.764-7.263-2.765h-33.675l-.334-.075c-6.201-1.378-11.896-4.455-16.447-8.887-4.551-4.431-7.778-10.043-9.319-16.2049l-1.592-6.3667c-.1-.398-.12-.8119-.06-1.2179s.199-.7962.41-1.1482c.211-.3521.489-.6592.819-.9038.329-.2446.708-.4219 1.106-.5217z" fill-rule="evenodd"/><path d="m374.334 121.291v17.708c0 7.859 0 11.784 2.442 14.225 2.441 2.442 6.366 2.442 14.225 2.442 7.858 0 11.783 0 14.225-2.442 2.441-2.441 2.441-6.366 2.441-14.225v-17.708z" opacity=".5"/><path d="m391.001 105.667c9.204 0 16.666-7.4616 16.666-16.6663 0-9.2048-7.462-16.6667-16.666-16.6667-9.205 0-16.667 7.4619-16.667 16.6667 0 9.2047 7.462 16.6663 16.667 16.6663z"/><path d="m0 0h254v52.5338h-254z" transform="translate(263 209)"/></g><rect fill="#ecbd85" height="20" rx="10" width="20" x="334.867" y="225.268"/><rect fill="#ecbd85" height="20" rx="10" width="20" x="360.289" y="225.268"/><rect fill="#f4d8b4" height="20" rx="10" width="20" x="385.711" y="225.268"/><rect fill="url(#c)" height="18.4596" rx="9.2298" width="34.4596" x="410.905" y="226.038"/><rect height="18.4596" rx="9.2298" stroke="url(#d)" stroke-width=".459596" width="34.4596" x="410.905" y="226.038"/></g></g><g filter="url(#b)"><g clip-path="url(#g)"><path d="m0 0h126v93.5248h-126z" fill="#2b645c" transform="translate(185 144)"/><circle cx="248.634" cy="190.129" fill="#20917e" r="38.693"/><g fill="#faeedc"><path clip-rule="evenodd" d="m232.766 198.191c.23-1.949 1.166-3.746 2.633-5.05 1.467-1.305 3.361-2.025 5.323-2.026h15.544c1.963 0 3.858.721 5.324 2.025 1.467 1.304 2.405 3.102 2.634 5.051l1.261 10.725c.022.19.007.383-.045.567s-.14.357-.258.507c-.119.15-.266.276-.433.369-.167.094-.351.153-.541.176-.19.022-.382.007-.567-.045-.184-.052-.356-.14-.506-.258-.15-.119-.276-.266-.369-.433-.094-.167-.154-.351-.176-.541l-1.263-10.725c-.146-1.24-.741-2.384-1.674-3.214s-2.138-1.289-3.387-1.289h-15.544c-2.584 0-4.76 1.935-5.063 4.501l-1.263 10.725c-.056.375-.255.712-.556.942s-.679.334-1.055.29c-.376-.045-.72-.233-.959-.527-.239-.293-.355-.668-.323-1.045z" fill-rule="evenodd"/><path d="m248.494 186.744c4.292 0 7.772-3.479 7.772-7.771s-3.48-7.772-7.772-7.772-7.771 3.48-7.771 7.772 3.479 7.771 7.771 7.771z"/><path d="m240.723 194.031v8.258c0 3.664 0 5.494 1.138 6.633 1.139 1.138 2.969 1.138 6.633 1.138 3.665 0 5.495 0 6.633-1.138 1.139-1.139 1.139-2.969 1.139-6.633v-8.258z" opacity=".5"/></g></g></g><path d="m25.664 55c-.1707 0-.256-.1387-.256-.416 0-.256.0853-.384.256-.384h.352c.704 0 1.3333-.256 1.888-.768.576-.512.864-1.184.864-2.016v-17.152c0-.7253-.2453-1.2267-.736-1.504-.4693-.2773-1.1413-.416-2.016-.416h-.352c-.1493 0-.224-.128-.224-.384 0-.2773.0747-.416.224-.416h7.008l7.168 17.472 7.104-17.472h6.816c.1493 0 .224.1387.224.416 0 .256-.0747.384-.224.384h-.416c-.8747 0-1.5467.1707-2.016.512-.448.3413-.672.96-.672 1.856v17.088c0 .9173.224 1.5467.672 1.888.4693.3413 1.1413.512 2.016.512h.416c.1493 0 .224.128.224.384 0 .2773-.0747.416-.224.416h-9.888c-.128 0-.192-.1387-.192-.416 0-.256.064-.384.192-.384h.48c.8533 0 1.5147-.1707 1.984-.512s.704-.9707.704-1.888l.032-17.248-8.224 20.448h-.672l-8.128-20.128v16.544c0 .8533.288 1.536.864 2.048.5973.4907 1.2267.736 1.888.736h.416c.128 0 .192.128.192.384 0 .2773-.064.416-.192.416zm45.8613-4.064c.128.0853.192.1707.192.256 0 .064-.032.1493-.096.256-.448 1.0453-1.216 1.9733-2.304 2.784-1.0667.8107-2.4 1.216-4 1.216-1.5147 0-2.8907-.3413-4.128-1.024-1.216-.6827-2.176-1.632-2.88-2.848s-1.056-2.5707-1.056-4.064c0-1.3227.288-2.624.864-3.904.5973-1.28 1.472-2.336 2.624-3.168s2.5386-1.248 4.16-1.248c1.856 0 3.4133.6187 4.672 1.856 1.2586 1.216 1.9946 2.88 2.2079 4.992l-10.9759.064c-.0214.2347-.032.6187-.032 1.152 0 1.9413.4693 3.5307 1.408 4.768.96 1.216 2.24 1.824 3.84 1.824 2.048 0 3.7013-.9493 4.96-2.848.0853-.128.1813-.192.288-.192.0853 0 .1706.0427.256.128zm-6.784-10.752c-.832 0-1.6107.384-2.336 1.152-.7254.7467-1.216 1.952-1.472 3.616l7.2-.064v-.48c-.0214-1.3653-.3627-2.4107-1.024-3.136-.64-.7253-1.4294-1.088-2.368-1.088zm24.409 10.752c.128.0853.192.1707.192.256 0 .064-.032.1493-.096.256-.448 1.0453-1.216 1.9733-2.304 2.784-1.0667.8107-2.4 1.216-4 1.216-1.5147 0-2.8907-.3413-4.128-1.024-1.216-.6827-2.176-1.632-2.88-2.848s-1.056-2.5707-1.056-4.064c0-1.3227.288-2.624.864-3.904.5973-1.28 1.472-2.336 2.624-3.168s2.5386-1.248 4.16-1.248c1.856 0 3.4133.6187 4.672 1.856 1.2586 1.216 1.9946 2.88 2.2079 4.992l-10.9759.064c-.0214.2347-.032.6187-.032 1.152 0 1.9413.4693 3.5307 1.408 4.768.96 1.216 2.24 1.824 3.84 1.824 2.048 0 3.7013-.9493 4.96-2.848.0853-.128.1813-.192.288-.192.0853 0 .1706.0427.256.128zm-6.784-10.752c-.832 0-1.6107.384-2.336 1.152-.7254.7467-1.216 1.952-1.472 3.616l7.2-.064v-.48c-.0214-1.3653-.3627-2.4107-1.024-3.136-.64-.7253-1.4294-1.088-2.368-1.088zm15.897 15.264c-1.344 0-2.368-.3627-3.072-1.088-.6827-.7467-1.0347-1.8347-1.056-3.264v-10.432h-2.72v-1.152c1.408-.3413 2.5386-.9813 3.392-1.92.8746-.9387 1.504-2.464 1.888-4.576h.672v6.496h4.0957v1.152h-4.1277v7.552c0 1.5573.0106 2.4533.032 2.688.0853 1.8773.8 2.816 2.144 2.816.4693 0 .8637-.0747 1.1837-.224.32-.1707.662-.4587 1.024-.864.107-.128.203-.192.288-.192.107 0 .203.0533.288.16.107.0853.16.1813.16.288 0 .0853-.021.1493-.064.192-1.045 1.5787-2.4211 2.368-4.1277 2.368z" fill="#faeedc"/></g><path d="m0 0h560zm560 296c0 4.418-3.582 8-8 8h-544c-4.41828 0-8-3.582-8-8h4 552zm-560 4v-300zm560-300v300z" fill="#20917e" mask="url(#h)"/></svg>