<svg width="146" height="30" viewBox="0 0 146 30" fill="none" xmlns="http://www.w3.org/2000/svg">
<g clip-path="url(#clip0_8611_4353)">
<path d="M4.7645 19.5523C4.7645 21.2366 5.13419 22.5298 5.61739 23.3121C6.25092 24.3368 7.19584 24.7709 8.15917 24.7709C9.40169 24.7709 10.5384 24.4626 12.7289 21.433C14.4837 19.0047 16.5515 15.5962 17.9428 13.4594L20.299 9.83924C21.9357 7.32507 23.8302 4.53018 26.0023 2.63573C27.7756 1.08949 29.6884 0.230469 31.6135 0.230469C34.8456 0.230469 37.9243 2.10344 40.2805 5.61623C42.8591 9.46342 44.1108 14.3092 44.1108 19.31C44.1108 22.2828 43.5248 24.4672 42.5277 26.1929C41.5644 27.8618 39.6868 29.5292 36.5284 29.5292V24.7709C39.2328 24.7709 39.9077 22.2859 39.9077 19.4419C39.9077 15.3891 38.9628 10.8915 36.8812 7.67788C35.404 5.39841 33.4896 4.00556 31.3834 4.00556C29.1055 4.00556 27.2724 5.72361 25.2123 8.78694C24.117 10.4145 22.9926 12.3979 21.7302 14.636L20.3404 17.098C17.5486 22.0481 16.8414 23.1756 15.4455 25.0363C12.9988 28.2944 10.9096 29.5292 8.15917 29.5292C4.89642 29.5292 2.83324 28.1165 1.55544 25.9873C0.512345 24.2524 0 21.976 0 19.3821L4.7645 19.5523Z" fill="#FAEEDC"/>
<path d="M3.75586 5.95217C5.94023 2.58511 9.09253 0.230469 12.7081 0.230469C14.802 0.230469 16.8836 0.850192 19.0572 2.62499C21.4348 4.56546 23.9689 7.76072 27.1305 13.0268L28.2641 14.9167C31.0007 19.4756 32.5576 21.8211 33.4688 22.9271C34.6408 24.3475 35.4614 24.7709 36.5275 24.7709C39.2319 24.7709 39.9069 22.2859 39.9069 19.4419L44.1099 19.31C44.1099 22.2828 43.524 24.4672 42.5269 26.1929C41.5636 27.8618 39.686 29.5292 36.5275 29.5292C34.5641 29.5292 32.8245 29.1028 30.9009 27.2881C29.4222 25.8953 27.6934 23.421 26.3635 21.1967L22.4074 14.5884C20.4224 11.272 18.6016 8.79921 17.5478 7.67941C16.4142 6.47525 14.9569 5.02105 12.6314 5.02105C10.7492 5.02105 9.15082 6.3418 7.8132 8.36203L3.75586 5.95217Z" fill="#FAEEDC"/>
<path d="M12.6322 5.02105C10.75 5.02105 9.15165 6.3418 7.81403 8.36203C5.92265 11.2167 4.7645 15.4689 4.7645 19.5523C4.7645 21.2366 5.13419 22.5298 5.61739 23.3121L1.55544 25.9873C0.512345 24.2524 0 21.976 0 19.3821C0 14.6651 1.29467 9.74874 3.75669 5.95217C5.94106 2.58511 9.09336 0.230469 12.7089 0.230469L12.6322 5.02105Z" fill="#FAEEDC"/>
<path d="M53.373 1.15625H58.8846L68.2556 18.1097L77.6281 1.15625H83.02V29.0131H78.524V7.66334L70.305 22.4477H66.0866L57.8691 7.66334V29.0131H53.373V1.15625ZM97.108 11.5427C93.8836 11.5427 91.9416 13.9695 91.4768 16.9745H102.42C102.195 13.879 100.409 11.5427 97.108 11.5427ZM87.0191 18.6864C87.0191 12.3634 91.1056 7.76151 97.1862 7.76151C103.167 7.76151 106.738 12.3051 106.738 19.0239V20.2587H91.4768C92.0183 23.5276 94.1873 25.7304 97.6848 25.7304C100.475 25.7304 102.219 24.8791 103.873 23.3221L106.261 26.2474C104.011 28.3167 101.148 29.5101 97.5252 29.5101C90.943 29.5101 87.0191 24.7103 87.0191 18.6864ZM112.19 11.9416H108.051V8.26005H112.19V2.17174H116.528V8.26005H122.816V11.9416H116.528V21.2727C116.528 24.4588 117.547 25.5908 120.05 25.5908C121.193 25.5908 121.848 25.4926 122.816 25.3316V28.9732C121.61 29.3138 120.46 29.4702 119.214 29.4702C114.531 29.4702 112.19 26.9116 112.19 21.7896V11.9416ZM141.082 15.5219C140.211 13.3221 138.267 11.7023 135.411 11.7023C131.699 11.7023 129.323 14.3361 129.323 18.6266C129.323 22.8097 131.51 25.5709 135.233 25.5709C138.16 25.5709 140.249 23.8682 141.082 21.7498V15.5219ZM145.42 29.0131H141.162V26.1078C139.972 27.8181 137.806 29.5101 134.298 29.5101C128.656 29.5101 124.885 24.787 124.885 18.6266C124.885 12.4079 128.746 7.76151 134.537 7.76151C137.399 7.76151 139.645 8.90585 141.162 10.9261V8.26005H145.42V29.0131Z" fill="#FAEEDC"/>
</g>
<defs>
<clipPath id="clip0_8611_4353">
<rect width="145.42" height="29.5385" fill="white" transform="translate(0 0.230469)"/>
</clipPath>
</defs>
</svg>
