<svg width="146" height="32" viewBox="0 0 146 32" fill="none" xmlns="http://www.w3.org/2000/svg">
<g clip-path="url(#clip0_8611_4359)">
<path d="M145.839 14.4235V11.866H142.663V7.89009L142.557 7.92297L139.574 8.83559L139.515 8.85352V11.866H134.807V10.188C134.807 9.40654 134.981 8.80851 135.326 8.4097C135.668 8.01564 136.157 7.81535 136.781 7.81535C137.229 7.81535 137.694 7.92104 138.161 8.12941L138.278 8.18163V5.48827L138.223 5.46805C137.787 5.31137 137.194 5.23242 136.459 5.23242C135.533 5.23242 134.691 5.43394 133.957 5.83345C133.223 6.23349 132.645 6.80462 132.24 7.53084C131.837 8.25619 131.632 9.0939 131.632 10.0209V11.866H129.421V14.4235H131.632V25.1974H134.807V14.4235H139.515V21.2702C139.515 24.09 140.845 25.5191 143.468 25.5191C143.899 25.5191 144.353 25.4684 144.816 25.3694C145.287 25.268 145.608 25.1665 145.797 25.0582L145.839 25.0336V22.4524L145.71 22.5378C145.538 22.6528 145.323 22.7466 145.072 22.8162C144.819 22.8872 144.608 22.9229 144.445 22.9229C143.83 22.9229 143.376 22.7573 143.093 22.4306C142.808 22.1009 142.663 21.5241 142.663 20.7175V14.4235H145.839ZM122.331 22.9232C121.179 22.9232 120.27 22.5411 119.63 21.7885C118.986 21.032 118.66 19.9536 118.66 18.5834C118.66 17.1698 118.986 16.0634 119.631 15.2936C120.271 14.5289 121.171 14.1408 122.305 14.1408C123.406 14.1408 124.282 14.5115 124.91 15.2431C125.541 15.9785 125.861 17.0761 125.861 18.5062C125.861 19.9539 125.56 21.0659 124.966 21.8098C124.377 22.5481 123.49 22.9232 122.331 22.9232ZM122.473 11.5448C120.274 11.5448 118.528 12.189 117.283 13.4594C116.039 14.73 115.408 16.4883 115.408 18.6859C115.408 20.7732 116.024 22.4521 117.239 23.6753C118.453 24.8989 120.106 25.5188 122.151 25.5188C124.282 25.5188 125.993 24.8657 127.238 23.5777C128.482 22.2909 129.112 20.5493 129.112 18.403C129.112 16.2831 128.521 14.5916 127.354 13.3766C126.186 12.161 124.543 11.5448 122.473 11.5448ZM110.29 11.5448C108.794 11.5448 107.558 11.9272 106.613 12.6814C105.662 13.44 105.18 14.4351 105.18 15.6391C105.18 16.2649 105.284 16.8209 105.489 17.2923C105.695 17.7655 106.014 18.1819 106.437 18.5315C106.858 18.8782 107.507 19.2415 108.367 19.611C109.09 19.9085 109.629 20.1603 109.972 20.3586C110.307 20.5529 110.544 20.7485 110.679 20.9387C110.809 21.125 110.875 21.3798 110.875 21.6945C110.875 22.5901 110.205 23.0258 108.824 23.0258C108.312 23.0258 107.729 22.9191 107.089 22.7082C106.449 22.4978 105.851 22.1951 105.312 21.807L105.18 21.7126V24.7689L105.228 24.7914C105.678 24.9987 106.244 25.1735 106.911 25.3112C107.577 25.4489 108.183 25.5191 108.709 25.5191C110.331 25.5191 111.638 25.1347 112.591 24.3761C113.551 23.6122 114.037 22.5938 114.037 21.3479C114.037 20.4494 113.776 19.6787 113.259 19.0572C112.747 18.4407 111.858 17.8749 110.617 17.3746C109.628 16.9779 108.995 16.6486 108.734 16.3959C108.482 16.1516 108.355 15.8063 108.355 15.369C108.355 14.9812 108.512 14.6707 108.836 14.4191C109.163 14.1662 109.617 14.0377 110.187 14.0377C110.716 14.0377 111.257 14.1212 111.796 14.2849C112.333 14.4486 112.806 14.6679 113.2 14.9362L113.33 15.0248V12.1256L113.28 12.1041C112.916 11.9482 112.437 11.8147 111.854 11.7064C111.274 11.5991 110.747 11.5448 110.29 11.5448ZM96.9037 22.9232C95.7518 22.9232 94.843 22.5411 94.203 21.7885C93.5587 21.032 93.2329 19.9539 93.2329 18.5834C93.2329 17.1698 93.5591 16.0634 94.2037 15.2936C94.8438 14.5289 95.7434 14.1408 96.8782 14.1408C97.9786 14.1408 98.8549 14.5115 99.4826 15.2431C100.114 15.9785 100.434 17.0761 100.434 18.5062C100.434 19.9539 100.132 21.0659 99.5387 21.8098C98.9493 22.5481 98.0632 22.9232 96.9037 22.9232ZM97.0455 11.5448C94.8466 11.5448 93.1005 12.189 91.8562 13.4594C90.6121 14.73 89.9809 16.4883 89.9809 18.6859C89.9809 20.774 90.597 22.4521 91.8115 23.6753C93.0261 24.8989 94.6788 25.5188 96.7238 25.5188C98.8543 25.5188 100.566 24.8657 101.811 23.5777C103.054 22.2909 103.685 20.5493 103.685 18.403C103.685 16.2831 103.094 14.5916 101.926 13.3766C100.758 12.161 99.1158 11.5448 97.0455 11.5448ZM85.1619 14.1747V11.866H82.0259V25.1971H85.1619V18.3778C85.1619 17.2181 85.4247 16.2656 85.9435 15.546C86.4557 14.8351 87.1383 14.4748 87.9716 14.4748C88.254 14.4748 88.5711 14.5214 88.9145 14.6136C89.2544 14.7052 89.5006 14.8045 89.6458 14.9091L89.7775 15.0046V11.8432L89.7267 11.8214C89.4346 11.6972 89.0216 11.6346 88.4988 11.6346C87.7109 11.6346 87.0056 11.8878 86.4015 12.3864C85.8714 12.8245 85.488 13.4254 85.1951 14.1747H85.1619ZM76.4102 11.5448C74.9716 11.5448 73.6883 11.8534 72.5967 12.4614C71.5029 13.0709 70.6572 13.9411 70.0816 15.0477C69.5087 16.1516 69.2179 17.4411 69.2179 18.8789C69.2179 20.1385 69.4999 21.2945 70.0574 22.3131C70.6151 23.3335 71.4047 24.1318 72.404 24.6856C73.4019 25.2386 74.5552 25.5191 75.8322 25.5191C77.3224 25.5191 78.5948 25.221 79.615 24.6335L79.6562 24.6098V21.7369L79.5245 21.8331C79.0624 22.1696 78.5459 22.4383 77.9903 22.6319C77.436 22.8253 76.9306 22.9231 76.4877 22.9231C75.2572 22.9231 74.2695 22.538 73.5524 21.7791C72.8337 21.0189 72.4694 19.9517 72.4694 18.6087C72.4694 17.2572 72.8494 16.1625 73.5983 15.3547C74.3447 14.5494 75.3344 14.1409 76.5394 14.1409C77.5702 14.1409 78.5746 14.4899 79.5248 15.1792L79.6562 15.2747V12.2476L79.6138 12.2237C79.2561 12.0236 78.7685 11.8583 78.1629 11.7329C77.5602 11.6079 76.9706 11.5448 76.4102 11.5448ZM67.0581 11.8661H63.9221V25.1971H67.0581V11.8661ZM65.5221 6.18692C65.006 6.18692 64.5559 6.36259 64.1861 6.71076C63.8147 7.05998 63.6262 7.49958 63.6262 8.01831C63.6262 8.52895 63.8124 8.96047 64.1801 9.30037C64.5455 9.63922 64.9971 9.81101 65.5221 9.81101C66.047 9.81101 66.5003 9.63922 66.8701 9.3009C67.2424 8.96047 67.4311 8.52895 67.4311 8.01831C67.4311 7.51769 67.2475 7.08248 66.8854 6.72482C66.5239 6.36786 66.0651 6.18692 65.5221 6.18692ZM57.6979 10.8825V25.1971H60.8982V6.59516H56.469L50.8389 20.4121L45.3753 6.59516H40.7656V25.1971H43.773V10.8811H43.8764L49.6458 25.1971H51.9154L57.5947 10.8825H57.6979Z" fill="#FAEEDC"/>
<path d="M15.172 15.1309H0.419922V0.378906H15.172V15.1309Z" fill="#FAEEDC"/>
<path d="M31.4608 15.1309H16.709V0.378906H31.4608V15.1309Z" fill="#FAEEDC"/>
<path d="M15.1716 31.4239H0.419922V16.6719H15.1716V31.4239Z" fill="#FAEEDC"/>
<path d="M31.4608 31.4239H16.709V16.6719H31.4608V31.4239Z" fill="#FAEEDC"/>
</g>
<defs>
<clipPath id="clip0_8611_4359">
<rect width="145.42" height="31.2426" fill="white" transform="translate(0.419922 0.378906)"/>
</clipPath>
</defs>
</svg>
