<svg width="128" height="40" viewBox="0 0 128 40" fill="none" xmlns="http://www.w3.org/2000/svg">
<g clip-path="url(#clip0_8611_4367)">
<path d="M20.5981 0C9.68613 0 0.839844 8.9157 0.839844 19.9135C0.839844 30.9119 9.68613 39.8269 20.5981 39.8269C31.5112 39.8269 40.3565 30.9119 40.3565 19.9135C40.3565 8.91641 31.5112 0.000951186 20.5978 0.000951186L20.5981 0ZM29.659 28.7211C29.3051 29.306 28.5454 29.4915 27.965 29.1324C23.326 26.2765 17.486 25.6297 10.6084 27.2134C9.94566 27.3656 9.28503 26.9471 9.13403 26.2789C8.98232 25.6107 9.39592 24.9448 10.0603 24.7927C17.5868 23.0596 24.0428 23.8058 29.2509 27.0137C29.8313 27.3727 30.0153 28.1361 29.659 28.7211ZM32.0774 23.2988C31.6315 24.0293 30.683 24.26 29.9587 23.8106C24.6477 20.5204 16.5519 19.5676 10.2701 21.4894C9.45538 21.7374 8.59491 21.2747 8.34765 20.455C8.10227 19.6339 8.56164 18.7683 9.37492 18.5186C16.5505 16.3242 25.4711 17.3872 31.5701 21.1646C32.2945 21.614 32.5233 22.5697 32.0774 23.2988ZM32.285 17.6526C25.9171 13.8405 15.4107 13.49 9.3308 15.3498C8.35449 15.6482 7.32202 15.0927 7.02615 14.1087C6.73029 13.1242 7.28097 12.0843 8.25799 11.7852C15.2373 9.64978 26.8396 10.0624 34.1711 14.449C35.0512 14.9743 35.339 16.1174 34.8176 17.0013C34.2985 17.8863 33.1613 18.1781 32.286 17.6526H32.285ZM54.5954 18.3831C51.1837 17.5632 50.5774 16.9877 50.5774 15.7785C50.5774 14.6361 51.6438 13.8673 53.2317 13.8673C54.77 13.8673 56.2941 14.4511 57.8938 15.6529C57.941 15.6893 58.0023 15.7038 58.0613 15.6943C58.1227 15.6853 58.1746 15.6522 58.21 15.6025L59.8757 13.236C59.9441 13.1385 59.9252 13.0041 59.8332 12.9297C57.9292 11.3904 55.7869 10.6421 53.2812 10.6421C49.5982 10.6421 47.0241 12.87 47.0241 16.0577C47.0241 19.476 49.2443 20.6864 53.0807 21.6207C56.3437 22.3785 56.8958 23.0135 56.8958 24.1482C56.8958 25.4062 55.7822 26.1885 53.989 26.1885C51.9977 26.1885 50.3721 25.5108 48.5554 23.9271C48.5105 23.8866 48.4492 23.87 48.3926 23.8724C48.3312 23.8771 48.277 23.9057 48.2392 23.9509L46.3706 26.1909C46.2927 26.286 46.3021 26.4239 46.3918 26.5048C48.5058 28.4072 51.1059 29.4107 53.9135 29.4107C57.882 29.4107 60.4467 27.2253 60.4467 23.8415C60.4537 20.9862 58.7573 19.4049 54.6025 18.3862L54.5954 18.3831ZM69.4265 14.9921C67.7065 14.9921 66.2956 15.6751 65.13 17.0745V15.4993C65.13 15.375 65.031 15.2737 64.9083 15.2737H61.8529C61.7302 15.2737 61.6311 15.375 61.6311 15.4993V33.0014C61.6311 33.125 61.7302 33.2273 61.8529 33.2273H64.9083C65.031 33.2273 65.13 33.125 65.13 33.0014V27.4774C66.2956 28.7924 67.7065 29.4368 69.4265 29.4368C72.6235 29.4368 75.8605 26.9566 75.8605 22.2152C75.8653 17.4728 72.6282 14.9919 69.4289 14.9919L69.4265 14.9921ZM72.3073 22.2152C72.3073 24.6286 70.8327 26.3146 68.7187 26.3146C66.6306 26.3146 65.0546 24.5525 65.0546 22.2152C65.0546 19.8776 66.6306 18.116 68.7187 18.116C70.7973 18.1158 72.3073 19.8396 72.3073 22.2152ZM84.1538 14.9921C80.0367 14.9921 76.8114 18.1871 76.8114 22.2668C76.8114 26.3027 80.0154 29.463 84.1042 29.463C88.2355 29.463 91.4702 26.2789 91.4702 22.2152C91.4702 18.1653 88.2568 14.9926 84.1538 14.9926V14.9921ZM84.1538 26.3383C81.9643 26.3383 80.3127 24.5644 80.3127 22.214C80.3127 19.8529 81.9076 18.1396 84.1042 18.1396C86.3079 18.1396 87.9689 19.9128 87.9689 22.2656C87.9689 24.6262 86.3645 26.3383 84.1538 26.3383ZM100.261 15.2737H96.8992V11.8099C96.8992 11.6858 96.8001 11.5845 96.6774 11.5845H93.622C93.4993 11.5845 93.3979 11.6858 93.3979 11.8099V15.2737H91.9303C91.8076 15.2737 91.7085 15.375 91.7085 15.4993V18.1453C91.7085 18.2694 91.8076 18.371 91.9303 18.371H93.3979V25.2183C93.3979 27.9839 94.7639 29.3869 97.4607 29.3869C98.5555 29.3869 99.4638 29.1586 100.32 28.6687C100.391 28.6307 100.434 28.5546 100.434 28.4737V25.9531C100.434 25.877 100.393 25.8033 100.327 25.7629C100.261 25.7201 100.179 25.7177 100.11 25.7534C99.5228 26.0506 98.9542 26.1885 98.3172 26.1885C97.338 26.1885 96.8992 25.7391 96.8992 24.7356V18.3722H100.261C100.384 18.3722 100.483 18.2708 100.483 18.1465V15.5008C100.488 15.3764 100.389 15.2751 100.264 15.2751L100.261 15.2737ZM111.973 15.2872V14.8618C111.973 13.6103 112.45 13.0522 113.516 13.0522C114.153 13.0522 114.665 13.1796 115.239 13.3722C115.309 13.3946 115.383 13.3834 115.439 13.3409C115.498 13.2983 115.531 13.23 115.531 13.1578V10.5634C115.531 10.4642 115.47 10.3765 115.373 10.3472C114.769 10.1658 113.995 9.9796 112.834 9.9796C110.015 9.9796 108.522 11.5809 108.522 14.6088V15.2603H107.054C106.931 15.2603 106.83 15.3616 106.83 15.4858V18.1453C106.83 18.2694 106.931 18.371 107.054 18.371H108.522V28.9303C108.522 29.0563 108.623 29.1562 108.746 29.1562H111.799C111.924 29.1562 112.023 29.0563 112.023 28.9303V18.3717H114.875L119.245 28.9303C118.749 30.0384 118.261 30.2596 117.596 30.2596C117.058 30.2596 116.489 30.0979 115.911 29.7769C115.857 29.7483 115.791 29.7436 115.734 29.7602C115.675 29.7816 115.626 29.8244 115.602 29.8815L114.566 32.1715C114.517 32.2809 114.559 32.4069 114.663 32.464C115.744 33.0537 116.718 33.3058 117.924 33.3058C120.179 33.3058 121.427 32.2452 122.524 29.3964L127.824 15.5954C127.852 15.526 127.843 15.4475 127.8 15.3859C127.76 15.3248 127.692 15.2879 127.618 15.2879H124.438C124.341 15.2879 124.256 15.349 124.226 15.4392L120.967 24.8164L117.4 15.433C117.367 15.3457 117.284 15.2879 117.192 15.2879H111.973V15.2872ZM105.183 15.2737H102.128C102.005 15.2737 101.903 15.375 101.903 15.4993V28.9303C101.903 29.0563 102.005 29.1562 102.128 29.1562H105.183C105.306 29.1562 105.407 29.0563 105.407 28.9303V15.5003C105.407 15.3759 105.308 15.2746 105.183 15.2746V15.2737ZM103.673 9.15778C102.463 9.15778 101.481 10.1451 101.481 11.3648C101.481 12.5851 102.463 13.5737 103.673 13.5737C104.883 13.5737 105.862 12.5851 105.862 11.3648C105.862 10.1453 104.881 9.15778 103.673 9.15778Z" fill="#FAEEDC"/>
</g>
<defs>
<clipPath id="clip0_8611_4367">
<rect width="127" height="40" fill="white" transform="translate(0.839844)"/>
</clipPath>
</defs>
</svg>
