<svg fill="none" height="300" viewBox="0 0 560 300" width="560" xmlns="http://www.w3.org/2000/svg" xmlns:xlink="http://www.w3.org/1999/xlink"><filter id="a" color-interpolation-filters="sRGB" filterUnits="userSpaceOnUse" height="267.462" width="172.049" x="146.639" y="57.8655"><feFlood flood-opacity="0" result="BackgroundImageFix"/><feColorMatrix in="SourceAlpha" result="hardAlpha" type="matrix" values="0 0 0 0 0 0 0 0 0 0 0 0 0 0 0 0 0 0 127 0"/><feOffset dy="5.06024"/><feGaussianBlur stdDeviation="5.06024"/><feColorMatrix type="matrix" values="0 0 0 0 0 0 0 0 0 0 0 0 0 0 0 0 0 0 0.06 0"/><feBlend in2="BackgroundImageFix" mode="normal" result="effect1_dropShadow_8611_4480"/><feColorMatrix in="SourceAlpha" result="hardAlpha" type="matrix" values="0 0 0 0 0 0 0 0 0 0 0 0 0 0 0 0 0 0 127 0"/><feOffset dy="18.7952"/><feGaussianBlur stdDeviation="9.39759"/><feColorMatrix type="matrix" values="0 0 0 0 0 0 0 0 0 0 0 0 0 0 0 0 0 0 0.05 0"/><feBlend in2="effect1_dropShadow_8611_4480" mode="normal" result="effect2_dropShadow_8611_4480"/><feColorMatrix in="SourceAlpha" result="hardAlpha" type="matrix" values="0 0 0 0 0 0 0 0 0 0 0 0 0 0 0 0 0 0 127 0"/><feOffset dy="42.6506"/><feGaussianBlur stdDeviation="12.6506"/><feColorMatrix type="matrix" values="0 0 0 0 0 0 0 0 0 0 0 0 0 0 0 0 0 0 0.03 0"/><feBlend in2="effect2_dropShadow_8611_4480" mode="normal" result="effect3_dropShadow_8611_4480"/><feColorMatrix in="SourceAlpha" result="hardAlpha" type="matrix" values="0 0 0 0 0 0 0 0 0 0 0 0 0 0 0 0 0 0 127 0"/><feOffset dy="75.9036"/><feGaussianBlur stdDeviation="15.1807"/><feColorMatrix type="matrix" values="0 0 0 0 0 0 0 0 0 0 0 0 0 0 0 0 0 0 0.01 0"/><feBlend in2="effect3_dropShadow_8611_4480" mode="normal" result="effect4_dropShadow_8611_4480"/><feBlend in="SourceGraphic" in2="effect4_dropShadow_8611_4480" mode="normal" result="shape"/></filter><filter id="b" color-interpolation-filters="sRGB" filterUnits="userSpaceOnUse" height="267.462" width="172.049" x="383.963" y="57.8655"><feFlood flood-opacity="0" result="BackgroundImageFix"/><feColorMatrix in="SourceAlpha" result="hardAlpha" type="matrix" values="0 0 0 0 0 0 0 0 0 0 0 0 0 0 0 0 0 0 127 0"/><feOffset dy="5.06024"/><feGaussianBlur stdDeviation="5.06024"/><feColorMatrix type="matrix" values="0 0 0 0 0 0 0 0 0 0 0 0 0 0 0 0 0 0 0.06 0"/><feBlend in2="BackgroundImageFix" mode="normal" result="effect1_dropShadow_8611_4480"/><feColorMatrix in="SourceAlpha" result="hardAlpha" type="matrix" values="0 0 0 0 0 0 0 0 0 0 0 0 0 0 0 0 0 0 127 0"/><feOffset dy="18.7952"/><feGaussianBlur stdDeviation="9.39759"/><feColorMatrix type="matrix" values="0 0 0 0 0 0 0 0 0 0 0 0 0 0 0 0 0 0 0.05 0"/><feBlend in2="effect1_dropShadow_8611_4480" mode="normal" result="effect2_dropShadow_8611_4480"/><feColorMatrix in="SourceAlpha" result="hardAlpha" type="matrix" values="0 0 0 0 0 0 0 0 0 0 0 0 0 0 0 0 0 0 127 0"/><feOffset dy="42.6506"/><feGaussianBlur stdDeviation="12.6506"/><feColorMatrix type="matrix" values="0 0 0 0 0 0 0 0 0 0 0 0 0 0 0 0 0 0 0.03 0"/><feBlend in2="effect2_dropShadow_8611_4480" mode="normal" result="effect3_dropShadow_8611_4480"/><feColorMatrix in="SourceAlpha" result="hardAlpha" type="matrix" values="0 0 0 0 0 0 0 0 0 0 0 0 0 0 0 0 0 0 127 0"/><feOffset dy="75.9036"/><feGaussianBlur stdDeviation="15.1807"/><feColorMatrix type="matrix" values="0 0 0 0 0 0 0 0 0 0 0 0 0 0 0 0 0 0 0.01 0"/><feBlend in2="effect3_dropShadow_8611_4480" mode="normal" result="effect4_dropShadow_8611_4480"/><feBlend in="SourceGraphic" in2="effect4_dropShadow_8611_4480" mode="normal" result="shape"/></filter><filter id="c" color-interpolation-filters="sRGB" filterUnits="userSpaceOnUse" height="384.259" width="247.952" x="227.023" y="21.1558"><feFlood flood-opacity="0" result="BackgroundImageFix"/><feColorMatrix in="SourceAlpha" result="hardAlpha" type="matrix" values="0 0 0 0 0 0 0 0 0 0 0 0 0 0 0 0 0 0 127 0"/><feOffset dy="7.22892"/><feGaussianBlur stdDeviation="7.22892"/><feColorMatrix type="matrix" values="0 0 0 0 0 0 0 0 0 0 0 0 0 0 0 0 0 0 0.06 0"/><feBlend in2="BackgroundImageFix" mode="normal" result="effect1_dropShadow_8611_4480"/><feColorMatrix in="SourceAlpha" result="hardAlpha" type="matrix" values="0 0 0 0 0 0 0 0 0 0 0 0 0 0 0 0 0 0 127 0"/><feOffset dy="26.8503"/><feGaussianBlur stdDeviation="13.4251"/><feColorMatrix type="matrix" values="0 0 0 0 0 0 0 0 0 0 0 0 0 0 0 0 0 0 0.05 0"/><feBlend in2="effect1_dropShadow_8611_4480" mode="normal" result="effect2_dropShadow_8611_4480"/><feColorMatrix in="SourceAlpha" result="hardAlpha" type="matrix" values="0 0 0 0 0 0 0 0 0 0 0 0 0 0 0 0 0 0 127 0"/><feOffset dy="60.9294"/><feGaussianBlur stdDeviation="18.0723"/><feColorMatrix type="matrix" values="0 0 0 0 0 0 0 0 0 0 0 0 0 0 0 0 0 0 0.03 0"/><feBlend in2="effect2_dropShadow_8611_4480" mode="normal" result="effect3_dropShadow_8611_4480"/><feColorMatrix in="SourceAlpha" result="hardAlpha" type="matrix" values="0 0 0 0 0 0 0 0 0 0 0 0 0 0 0 0 0 0 127 0"/><feOffset dy="108.434"/><feGaussianBlur stdDeviation="21.6867"/><feColorMatrix type="matrix" values="0 0 0 0 0 0 0 0 0 0 0 0 0 0 0 0 0 0 0.01 0"/><feBlend in2="effect3_dropShadow_8611_4480" mode="normal" result="effect4_dropShadow_8611_4480"/><feBlend in="SourceGraphic" in2="effect4_dropShadow_8611_4480" mode="normal" result="shape"/></filter><linearGradient id="d"><stop offset="0" stop-color="#288ac8"/><stop offset="1" stop-color="#2f6a8e"/></linearGradient><linearGradient id="e" gradientUnits="userSpaceOnUse" x1="232.663" x2="232.663" xlink:href="#d" y1="192.02" y2="207.676"/><linearGradient id="f"><stop offset="0" stop-color="#57bcfa"/><stop offset="1" stop-color="#11496b"/></linearGradient><linearGradient id="g" gradientUnits="userSpaceOnUse" x1="232.663" x2="232.663" xlink:href="#f" y1="192.02" y2="207.676"/><linearGradient id="h" gradientUnits="userSpaceOnUse" x1="469.987" x2="469.987" xlink:href="#d" y1="192.02" y2="207.676"/><linearGradient id="i" gradientUnits="userSpaceOnUse" x1="469.987" x2="469.987" xlink:href="#f" y1="192.02" y2="207.676"/><linearGradient id="j" gradientUnits="userSpaceOnUse" x1="350.999" x2="350.999" xlink:href="#d" y1="213.889" y2="236.256"/><linearGradient id="k" gradientUnits="userSpaceOnUse" x1="350.999" x2="350.999" xlink:href="#f" y1="213.889" y2="236.256"/><clipPath id="l"><path d="m0 4c0-2.20914 1.79086-4 4-4h552c2.209 0 4 1.79086 4 4v292c0 2.209-1.791 4-4 4h-552.00001c-2.20914 0-3.99999-1.791-3.99999-4z"/></clipPath><clipPath id="m"><rect height="156.138" rx="7.59122" width="111.325" x="177" y="62.9258"/></clipPath><clipPath id="n"><path d="m188.387 128.4h88.5516v26.207h-88.5516z"/></clipPath><clipPath id="o"><rect height="156.138" rx="7.59122" width="111.325" x="414.324" y="62.9258"/></clipPath><clipPath id="p"><path d="m425.711 128.4h88.5516v26.207h-88.5516z"/></clipPath><clipPath id="q"><rect height="223.054" rx="10.8446" width="159.036" x="271.48" y="29.4688"/></clipPath><clipPath id="r"><path d="m287.748 123.004h126.502v37.4385h-126.502z"/></clipPath><mask id="s" fill="#fff"><path d="m0 4c0-2.20914 1.79086-4 4-4h552c2.209 0 4 1.79086 4 4v292c0 2.209-1.791 4-4 4h-552.00001c-2.20914 0-3.99999-1.791-3.99999-4z" fill="#fff"/></mask><g clip-path="url(#l)"><path d="m0 4c0-2.20914 1.79086-4 4-4h552c2.209 0 4 1.79086 4 4v292c0 2.209-1.791 4-4 4h-552.00001c-2.20914 0-3.99999-1.791-3.99999-4z" fill="#1a4740"/><g stroke="#20917e" stroke-width="1.38789"><rect height="35.6121" rx="17.8061" width="144.612" x="101.694" y="206.694"/><rect height="35.6121" rx="17.8061" width="44.6121" x="45.6939" y="206.694"/><rect height="34.6121" rx="17.3061" width="382.612" x="471.694" y="37.6939"/></g><g filter="url(#a)"><g clip-path="url(#m)"><path d="m0 0h111.325v54.0875h-111.325z" fill="#20917e" transform="translate(177 62.9258)"/><circle cx="209.825" cy="89.9694" fill="#2b645c" r="15.6569"/><g fill="#faeedc"><path d="m217.5 93.3323v-5c0-2.3566 0-3.535-.733-4.2675-.64-.64-1.621-.7208-3.434-.7308h-6.666c-1.813.01-2.795.0908-3.435.7308-.732.7325-.732 1.9109-.732 4.2675v5c0 2.3575 0 3.5359.732 4.2684.732.7316 1.911.7316 4.268.7316h5c2.357 0 3.536 0 4.267-.7316.733-.7334.733-1.9109.733-4.2684z" opacity=".5"/><path d="m206.666 82.916c0-.3315.132-.6494.366-.8839.235-.2344.552-.3661.884-.3661h4.167c.331 0 .649.1317.884.3661.234.2345.366.5524.366.8839v.8333c0 .3316-.132.6495-.366.8839-.235.2345-.553.3661-.884.3661h-4.167c-.332 0-.649-.1316-.884-.3661-.234-.2344-.366-.5523-.366-.8839z"/><path clip-rule="evenodd" d="m205.209 88.75c0-.1658.066-.3247.183-.4419.117-.1173.276-.1831.442-.1831h.417c.165 0 .324.0658.442.1831.117.1172.183.2761.183.4419s-.066.3247-.183.4419c-.118.1173-.277.1831-.442.1831h-.417c-.166 0-.325-.0658-.442-.1831-.117-.1172-.183-.2761-.183-.4419zm2.917 0c0-.1658.065-.3247.183-.4419.117-.1173.276-.1831.442-.1831h5.416c.166 0 .325.0658.442.1831.117.1172.183.2761.183.4419s-.066.3247-.183.4419c-.117.1173-.276.1831-.442.1831h-5.416c-.166 0-.325-.0658-.442-.1831-.118-.1172-.183-.2761-.183-.4419zm-2.917 2.9167c0-.1658.066-.3248.183-.442s.276-.183.442-.183h.417c.165 0 .324.0658.442.183.117.1172.183.2762.183.442 0 .1657-.066.3247-.183.4419-.118.1172-.277.1831-.442.1831h-.417c-.166 0-.325-.0659-.442-.1831s-.183-.2762-.183-.4419zm2.917 0c0-.1658.065-.3248.183-.442.117-.1172.276-.183.442-.183h5.416c.166 0 .325.0658.442.183s.183.2762.183.442c0 .1657-.066.3247-.183.4419s-.276.1831-.442.1831h-5.416c-.166 0-.325-.0659-.442-.1831-.118-.1172-.183-.2762-.183-.4419zm-2.917 2.9166c0-.1657.066-.3247.183-.4419s.276-.1831.442-.1831h.417c.165 0 .324.0659.442.1831.117.1172.183.2762.183.4419 0 .1658-.066.3248-.183.442-.118.1172-.277.183-.442.183h-.417c-.166 0-.325-.0658-.442-.183s-.183-.2762-.183-.442zm2.917 0c0-.1657.065-.3247.183-.4419.117-.1172.276-.1831.442-.1831h5.416c.166 0 .325.0659.442.1831s.183.2762.183.4419c0 .1658-.066.3248-.183.442s-.276.183-.442.183h-5.416c-.166 0-.325-.0658-.442-.183-.118-.1172-.183-.2762-.183-.442z" fill-rule="evenodd"/><path d="m238.779 86.6222c.509.0228.983.1215 1.424.2961.44.1746.793.4251 1.059.7515.265.3264.398.7098.398 1.1501 0 .8046-.315 1.3778-.945 1.7194-.622.3416-1.351.5314-2.186.5693-.167.0076-.429.0114-.786.0114h-.524v2.7101c0 .3264.084.5503.251.6718.167.1214.406.1822.717.1822h.16c.053 0 .079.0455.079.1366 0 .0987-.026.1481-.079.1481h-3.553c-.053 0-.08-.0494-.08-.1481 0-.0911.027-.1366.08-.1366h.159c.296 0 .532-.0608.706-.1822.175-.1215.262-.3454.262-.6718v-6.0692c0-.3188-.087-.539-.262-.6605-.167-.129-.402-.1935-.706-.1935h-.159c-.053 0-.08-.0456-.08-.1367 0-.0987.027-.148.08-.148l2.733-.0114c.729 0 1.146.0038 1.252.0114zm-.694 4.1676c.789-.0152 1.343-.2012 1.662-.558s.478-.8426.478-1.4575c0-.4706-.121-.8426-.364-1.1159s-.524-.4593-.843-.558c-.311-.1062-.595-.1594-.854-.1594-.273 0-.501.0494-.683.1481-.174.0986-.262.2922-.262.5807v3.1314h.319c.273 0 .456-.0038.547-.0114zm4.468 4.1676c-.061 0-.091-.0456-.091-.1367 0-.0987.03-.148.091-.148h.137c.22 0 .391-.0342.512-.1025.129-.0683.194-.2087.194-.4213l-.012-6.3425c0-.2353-.064-.3909-.193-.4668-.122-.0835-.315-.1291-.581-.1367-.076 0-.114-.0569-.114-.1708 0-.0531.023-.0873.068-.1025l.342-.0797c.979-.2201 1.522-.3378 1.628-.353v7.652c0 .2126.065.353.194.4213s.304.1025.524.1025h.136c.053 0 .08.0493.08.148 0 .0911-.027.1367-.08.1367zm9.553-.9679c.023 0 .042.0076.057.0228.023.0151.034.0379.034.0683l-.011.0569c-.107.3037-.281.5428-.524.7174-.236.167-.479.2505-.729.2505-.516 0-.846-.2619-.991-.7857-.288.2657-.615.4669-.979.6035-.357.1366-.714.205-1.07.205-.463 0-.832-.1063-1.105-.3189-.266-.2201-.398-.5162-.398-.8881 0-.2961.072-.5504.216-.763.152-.2201.376-.4137.672-.5807.174-.0987.368-.1746.581-.2277.22-.0608.542-.1405.967-.2391.577-.1367.927-.224 1.048-.2619v-.5011c0-.4099-.015-.7059-.046-.8881-.03-.1898-.098-.3492-.205-.4783-.159-.1898-.398-.2847-.717-.2847-.235 0-.425.0646-.569.1936-.144.1291-.266.3606-.365.6946-.06.2278-.151.4024-.273.5238-.121.1139-.262.1708-.421.1708-.16 0-.304-.0493-.433-.148-.129-.1063-.193-.2429-.193-.4099 0-.1443.053-.3189.159-.5238.114-.2126.338-.4062.672-.5808.341-.1746.816-.2619 1.423-.2619.418 0 .782.0608 1.093.1822.311.1139.547.2657.706.4555.129.1594.213.3264.251.501.045.1746.068.391.068.6491 0 .4782-.004.8578-.011 1.1387l-.012 1.3664c0 .5238.152.7857.456.7857.228 0 .417-.1291.569-.3872.023-.0379.049-.0569.08-.0569zm-3.576.5466c.228 0 .46-.0494.695-.1481.243-.0987.459-.2429.649-.4327-.015-.1518-.023-.2733-.023-.3644l.012-1.3892c-.767.1822-1.333.3986-1.697.6491s-.547.5655-.547.9451c0 .2126.076.391.228.5352.16.1366.387.205.683.205zm10.607.148c.053 0 .08.0493.08.148 0 .0911-.027.1367-.08.1367h-2.778c-.054 0-.08-.0456-.08-.1367 0-.0987.026-.148.08-.148h.148c.212 0 .375-.0342.489-.1025.122-.0683.182-.2088.182-.4213v-2.0496l-.011-.8654c-.03-.8958-.376-1.3437-1.036-1.3437-.273 0-.535.0835-.786.2505-.243.167-.455.4099-.638.7288l-.011 3.2794c0 .2125.061.353.182.4213.122.0683.293.1025.513.1025h.125c.053 0 .08.0493.08.148 0 .0911-.027.1367-.08.1367h-2.767c-.061 0-.091-.0456-.091-.1367 0-.0987.03-.148.091-.148h.137c.212 0 .379-.0342.501-.1025.121-.0683.182-.2088.182-.4213l-.023-3.4958c0-.2353-.061-.3871-.182-.4554-.114-.076-.311-.1253-.592-.1481-.069-.0076-.103-.0683-.103-.1822 0-.0455.019-.0759.057-.0911.091-.0303.752-.1746 1.981-.4327v1.0135c.479-.6757 1.059-1.0135 1.743-1.0135.607 0 1.066.1708 1.377.5124.312.3341.479.7402.501 1.2184.008.1595.012.4821.012.9679 0 .6073-.008 1.3095-.023 2.1066 0 .2125.057.353.171.4213.121.0683.292.1025.512.1025zm3.957.2847c-.053 0-.08-.0456-.08-.1367 0-.0987.027-.148.08-.148h.16c.311 0 .546-.0608.706-.1822.167-.1215.25-.3454.25-.6718v-6.0692c0-.3264-.083-.5504-.25-.6718-.167-.1215-.403-.1822-.706-.1822h-.16c-.053 0-.08-.0456-.08-.1367 0-.0987.027-.148.08-.148l2.357-.0114c.82 0 1.397.0038 1.731.0114.509.0076.972.0911 1.389.2505.425.1594.759.3872 1.002.6832.251.2961.376.6377.376 1.0248 0 .5162-.209.93-.626 1.2412-.418.3112-.942.539-1.572.6832.752.1518 1.386.4061 1.902.7629.516.3492.774.8161.774 1.4006 0 .4707-.144.8806-.432 1.2298-.289.3492-.672.6149-1.15.7971-.479.1822-1.002.2733-1.572.2733h-1.822zm2.71-4.6231c1.033 0 1.735-.1632 2.107-.4896.379-.3265.569-.7668.569-1.3209 0-.4631-.171-.8426-.512-1.1387-.342-.2961-.85-.4441-1.526-.4441-.326 0-.562.057-.706.1708-.144.1063-.216.2885-.216.5466v2.6759zm.843 4.2928c.683 0 1.237-.167 1.662-.501s.638-.8274.638-1.4803c0-.5997-.231-1.0779-.695-1.4347-.455-.3644-1.271-.5466-2.448-.5466h-.284v3.2453c0 .2732.072.463.216.5693.152.0987.398.148.74.148z"/><path d="m0 0h111.325v102.05h-111.325z" transform="translate(177 117.014)"/></g><g clip-path="url(#n)" fill="#f4d8b4"><rect height="3.61446" rx="1.80723" width="70.8434" x="188.387" y="128.4"/><rect height="3.79561" rx="1.89781" width="88.5516" x="188.387" y="135.811"/><rect height="3.79561" rx="1.89781" width="88.5516" x="188.387" y="143.402"/><rect height="3.61446" rx="1.80723" width="43.3735" x="188.387" y="150.992"/></g><rect fill="#f4d8b4" height="2.89157" rx="1.44578" width="30.3614" x="217.482" y="165.994"/><rect fill="#ecbd85" height="7.95181" rx="3.9759" width="53.494" x="205.916" y="172.682"/><rect fill="url(#e)" height="15.9786" rx="7.98931" width="88.8733" x="188.226" y="191.859"/><rect height="15.9786" rx="7.98931" stroke="url(#g)" stroke-width=".321717" width="88.8733" x="188.226" y="191.859"/></g></g><g filter="url(#b)"><g clip-path="url(#o)"><path d="m0 0h111.325v54.0875h-111.325z" fill="#20917e" transform="translate(414.324 62.9258)"/><circle cx="447.149" cy="89.9694" fill="#2b645c" r="15.6569"/><g fill="#faeedc"><path d="m454.498 93.3323v-5c0-2.3566 0-3.535-.732-4.2675-.64-.64-1.622-.7208-3.435-.7308h-6.666c-1.813.01-2.794.0908-3.434.7308-.733.7325-.733 1.9109-.733 4.2675v5c0 2.3575 0 3.5359.733 4.2684.731.7316 1.91.7316 4.267.7316h5c2.357 0 3.536 0 4.268-.7316.732-.7334.732-1.9109.732-4.2684z" opacity=".5"/><path d="m443.664 82.916c0-.3315.132-.6494.366-.8839.235-.2344.553-.3661.884-.3661h4.167c.331 0 .649.1317.884.3661.234.2345.366.5524.366.8839v.8333c0 .3316-.132.6495-.366.8839-.235.2345-.553.3661-.884.3661h-4.167c-.331 0-.649-.1316-.884-.3661-.234-.2344-.366-.5523-.366-.8839z"/><path clip-rule="evenodd" d="m442.207 88.75c0-.1658.066-.3247.183-.4419.117-.1173.276-.1831.442-.1831h.417c.165 0 .324.0658.442.1831.117.1172.183.2761.183.4419s-.066.3247-.183.4419c-.118.1173-.277.1831-.442.1831h-.417c-.166 0-.325-.0658-.442-.1831-.117-.1172-.183-.2761-.183-.4419zm2.917 0c0-.1658.066-.3247.183-.4419.117-.1173.276-.1831.442-.1831h5.416c.166 0 .325.0658.442.1831.118.1172.183.2761.183.4419s-.065.3247-.183.4419c-.117.1173-.276.1831-.442.1831h-5.416c-.166 0-.325-.0658-.442-.1831-.117-.1172-.183-.2761-.183-.4419zm-2.917 2.9167c0-.1658.066-.3248.183-.442s.276-.183.442-.183h.417c.165 0 .324.0658.442.183.117.1172.183.2762.183.442 0 .1657-.066.3247-.183.4419-.118.1172-.277.1831-.442.1831h-.417c-.166 0-.325-.0659-.442-.1831s-.183-.2762-.183-.4419zm2.917 0c0-.1658.066-.3248.183-.442s.276-.183.442-.183h5.416c.166 0 .325.0658.442.183.118.1172.183.2762.183.442 0 .1657-.065.3247-.183.4419-.117.1172-.276.1831-.442.1831h-5.416c-.166 0-.325-.0659-.442-.1831s-.183-.2762-.183-.4419zm-2.917 2.9166c0-.1657.066-.3247.183-.4419s.276-.1831.442-.1831h.417c.165 0 .324.0659.442.1831.117.1172.183.2762.183.4419 0 .1658-.066.3248-.183.442-.118.1172-.277.183-.442.183h-.417c-.166 0-.325-.0658-.442-.183s-.183-.2762-.183-.442zm2.917 0c0-.1657.066-.3247.183-.4419s.276-.1831.442-.1831h5.416c.166 0 .325.0659.442.1831.118.1172.183.2762.183.4419 0 .1658-.065.3248-.183.442-.117.1172-.276.183-.442.183h-5.416c-.166 0-.325-.0658-.442-.183s-.183-.2762-.183-.442z" fill-rule="evenodd"/><path d="m476.104 86.6222c.508.0228.983.1215 1.423.2961s.793.4251 1.059.7515.398.7098.398 1.1501c0 .8046-.315 1.3778-.945 1.7194-.622.3416-1.351.5314-2.186.5693-.167.0076-.429.0114-.786.0114h-.523v2.7101c0 .3264.083.5503.25.6718.167.1214.406.1822.717.1822h.16c.053 0 .08.0455.08.1366 0 .0987-.027.1481-.08.1481h-3.553c-.053 0-.08-.0494-.08-.1481 0-.0911.027-.1366.08-.1366h.16c.296 0 .531-.0608.706-.1822.174-.1215.261-.3454.261-.6718v-6.0692c0-.3188-.087-.539-.261-.6605-.167-.129-.403-.1935-.706-.1935h-.16c-.053 0-.08-.0456-.08-.1367 0-.0987.027-.148.08-.148l2.733-.0114c.729 0 1.146.0038 1.253.0114zm-.695 4.1676c.789-.0152 1.344-.2012 1.662-.558.319-.3568.479-.8426.479-1.4575 0-.4706-.122-.8426-.365-1.1159s-.524-.4593-.842-.558c-.312-.1062-.596-.1594-.854-.1594-.274 0-.501.0494-.684.1481-.174.0986-.261.2922-.261.5807v3.1314h.318c.274 0 .456-.0038.547-.0114zm4.468 4.1676c-.061 0-.091-.0456-.091-.1367 0-.0987.03-.148.091-.148h.137c.22 0 .391-.0342.512-.1025.129-.0683.194-.2087.194-.4213l-.012-6.3425c0-.2353-.064-.3909-.193-.4668-.122-.0835-.315-.1291-.581-.1367-.076 0-.114-.0569-.114-.1708 0-.0531.023-.0873.069-.1025l.341-.0797c.979-.2201 1.522-.3378 1.629-.353v7.652c0 .2126.064.353.193.4213s.304.1025.524.1025h.137c.053 0 .079.0493.079.148 0 .0911-.026.1367-.079.1367zm9.553-.9679c.023 0 .042.0076.057.0228.023.0151.034.0379.034.0683l-.011.0569c-.107.3037-.281.5428-.524.7174-.235.167-.478.2505-.729.2505-.516 0-.846-.2619-.99-.7857-.289.2657-.615.4669-.98.6035-.357.1366-.713.205-1.07.205-.463 0-.831-.1063-1.105-.3189-.265-.2201-.398-.5162-.398-.8881 0-.2961.072-.5504.216-.763.152-.2201.376-.4137.672-.5807.175-.0987.368-.1746.581-.2277.22-.0608.543-.1405.968-.2391.577-.1367.926-.224 1.047-.2619v-.5011c0-.4099-.015-.7059-.045-.8881-.031-.1898-.099-.3492-.205-.4783-.16-.1898-.399-.2847-.718-.2847-.235 0-.425.0646-.569.1936-.144.1291-.266.3606-.364.6946-.061.2278-.152.4024-.274.5238-.121.1139-.262.1708-.421.1708s-.304-.0493-.433-.148c-.129-.1063-.193-.2429-.193-.4099 0-.1443.053-.3189.159-.5238.114-.2126.338-.4062.672-.5808.342-.1746.816-.2619 1.423-.2619.418 0 .782.0608 1.093.1822.312.1139.547.2657.706.4555.13.1594.213.3264.251.501.046.1746.068.391.068.6491 0 .4782-.004.8578-.011 1.1387l-.011 1.3664c0 .5238.151.7857.455.7857.228 0 .418-.1291.569-.3872.023-.0379.05-.0569.08-.0569zm-3.575.5466c.227 0 .459-.0494.694-.1481.243-.0987.459-.2429.649-.4327-.015-.1518-.023-.2733-.023-.3644l.012-1.3892c-.767.1822-1.332.3986-1.697.6491-.364.2505-.546.5655-.546.9451 0 .2126.076.391.227.5352.16.1366.388.205.684.205zm10.606.148c.053 0 .08.0493.08.148 0 .0911-.027.1367-.08.1367h-2.778c-.053 0-.08-.0456-.08-.1367 0-.0987.027-.148.08-.148h.148c.212 0 .376-.0342.489-.1025.122-.0683.183-.2088.183-.4213v-2.0496l-.012-.8654c-.03-.8958-.376-1.3437-1.036-1.3437-.273 0-.535.0835-.786.2505-.243.167-.455.4099-.637.7288l-.012 3.2794c0 .2125.061.353.182.4213.122.0683.293.1025.513.1025h.125c.053 0 .08.0493.08.148 0 .0911-.027.1367-.08.1367h-2.767c-.061 0-.091-.0456-.091-.1367 0-.0987.03-.148.091-.148h.137c.212 0 .379-.0342.501-.1025.121-.0683.182-.2088.182-.4213l-.023-3.4958c0-.2353-.061-.3871-.182-.4554-.114-.076-.311-.1253-.592-.1481-.068-.0076-.103-.0683-.103-.1822 0-.0455.019-.0759.057-.0911.091-.0303.752-.1746 1.982-.4327v1.0135c.478-.6757 1.059-1.0135 1.742-1.0135.607 0 1.066.1708 1.378.5124.311.3341.478.7402.501 1.2184.007.1595.011.4821.011.9679 0 .6073-.008 1.3095-.023 2.1066 0 .2125.057.353.171.4213.122.0683.292.1025.512.1025zm8.023.4441c-.623 0-1.249-.1481-1.879-.4441-.63-.3037-1.162-.7667-1.594-1.3892-.426-.6225-.638-1.3968-.638-2.3229 0-.7895.174-1.5259.524-2.2091.349-.6832.82-1.2298 1.412-1.6397s1.237-.6149 1.935-.6149c.236 0 .46.0266.672.0797.22.0532.452.1253.695.2164.114.0379.22.0721.319.1025.106.0303.193.0455.262.0455.235 0 .455-.1025.66-.3074.243 1.0248.391 1.6549.444 1.8902l.023.1139c0 .0455-.031.0873-.091.1252-.015.0076-.034.0114-.057.0114-.038 0-.08-.0266-.125-.0797-.031-.0456-.167-.2429-.41-.5921-.236-.3492-.555-.6339-.957-.854-.402-.2278-.846-.3416-1.332-.3416-.706 0-1.249.2543-1.628.7629-.372.5086-.619 1.059-.741 1.6511-.113.5845-.17 1.0817-.17 1.4916 0 .8275.14 1.5259.421 2.0952.281.5618.638.9793 1.07 1.2526.441.2733.892.4099 1.355.4099.608 0 1.112-.1556 1.515-.4669.402-.3188.778-.7477 1.127-1.2867.038-.0455.072-.0683.103-.0683.022 0 .056.019.102.0569.046.0304.068.0684.068.1139l-.022.0683c-.289.5542-.68 1.0476-1.173 1.4803-.494.4327-1.124.6491-1.89.6491z"/><path d="m0 0h111.325v102.05h-111.325z" transform="translate(414.324 117.014)"/></g><g clip-path="url(#p)" fill="#f4d8b4"><rect height="3.61446" rx="1.80723" width="70.8434" x="425.711" y="128.4"/><rect height="3.79561" rx="1.89781" width="88.5516" x="425.711" y="135.811"/><rect height="3.79561" rx="1.89781" width="88.5516" x="425.711" y="143.402"/><rect height="3.61446" rx="1.80723" width="43.3735" x="425.711" y="150.992"/></g><rect fill="#f4d8b4" height="2.89157" rx="1.44578" width="30.3614" x="454.807" y="165.994"/><rect fill="#ecbd85" height="7.95181" rx="3.9759" width="53.494" x="443.24" y="172.682"/><rect fill="url(#h)" height="15.9786" rx="7.98931" width="88.8733" x="425.55" y="191.859"/><rect height="15.9786" rx="7.98931" stroke="url(#i)" stroke-width=".321717" width="88.8733" x="425.55" y="191.859"/></g></g><g filter="url(#c)"><g clip-path="url(#q)"><path d="m0 0h159.036v77.2678h-159.036z" fill="#20917e" transform="translate(271.48 29.4688)"/><circle cx="317.803" cy="68.1033" fill="#2b645c" r="22.367"/><g fill="#faeedc"><path d="m329.25 72.9975v-7.5c0-3.535 0-5.3025-1.099-6.4013-.96-.96-2.432-1.0812-5.151-1.0962h-10c-2.719.015-4.191.1362-5.151 1.0962-1.099 1.0988-1.099 2.8663-1.099 6.4013v7.5c0 3.5362 0 5.3037 1.099 6.4025 1.097 1.0975 2.866 1.0975 6.401 1.0975h7.5c3.535 0 5.304 0 6.401-1.0975 1.099-1.1 1.099-2.8663 1.099-6.4025z" opacity=".5"/><path d="m313 57.375c0-.4973.198-.9742.549-1.3258.352-.3517.829-.5492 1.326-.5492h6.25c.497 0 .974.1975 1.326.5492.351.3516.549.8285.549 1.3258v1.25c0 .4973-.198.9742-.549 1.3258-.352.3517-.829.5492-1.326.5492h-6.25c-.497 0-.974-.1975-1.326-.5492-.351-.3516-.549-.8285-.549-1.3258z"/><path clip-rule="evenodd" d="m310.812 66.125c0-.2486.099-.4871.275-.6629s.414-.2746.663-.2746h.625c.249 0 .487.0988.663.2746s.274.4143.274.6629-.098.4871-.274.6629-.414.2746-.663.2746h-.625c-.249 0-.487-.0988-.663-.2746s-.275-.4143-.275-.6629zm4.376 0c0-.2486.098-.4871.274-.6629s.414-.2746.663-.2746h8.125c.249 0 .487.0988.663.2746s.275.4143.275.6629-.099.4871-.275.6629-.414.2746-.663.2746h-8.125c-.249 0-.487-.0988-.663-.2746s-.274-.4143-.274-.6629zm-4.376 4.375c0-.2486.099-.4871.275-.6629s.414-.2746.663-.2746h.625c.249 0 .487.0988.663.2746s.274.4143.274.6629-.098.4871-.274.6629-.414.2746-.663.2746h-.625c-.249 0-.487-.0988-.663-.2746s-.275-.4143-.275-.6629zm4.376 0c0-.2486.098-.4871.274-.6629s.414-.2746.663-.2746h8.125c.249 0 .487.0988.663.2746s.275.4143.275.6629-.099.4871-.275.6629-.414.2746-.663.2746h-8.125c-.249 0-.487-.0988-.663-.2746s-.274-.4143-.274-.6629zm-4.376 4.375c0-.2486.099-.4871.275-.6629s.414-.2746.663-.2746h.625c.249 0 .487.0988.663.2746s.274.4143.274.6629-.098.4871-.274.6629-.414.2746-.663.2746h-.625c-.249 0-.487-.0988-.663-.2746s-.275-.4143-.275-.6629zm4.376 0c0-.2486.098-.4871.274-.6629s.414-.2746.663-.2746h8.125c.249 0 .487.0988.663.2746s.275.4143.275.6629-.099.4871-.275.6629-.414.2746-.663.2746h-8.125c-.249 0-.487-.0988-.663-.2746s-.274-.4143-.274-.6629z" fill-rule="evenodd"/><path d="m359.167 63.6799c.726.0325 1.404.1735 2.033.4229s1.133.6073 1.513 1.0736.569 1.014.569 1.643c0 1.1495-.45 1.9683-1.35 2.4563-.889.488-1.93.7591-3.123.8133-.239.0109-.613.0163-1.122.0163h-.749v3.8715c0 .4663.12.7863.358.9598.239.1735.58.2602 1.025.2602h.228c.076 0 .114.0651.114.1952 0 .141-.038.2115-.114.2115h-5.076c-.075 0-.113-.0705-.113-.2115 0-.1301.038-.1952.113-.1952h.228c.423 0 .759-.0867 1.009-.2602.249-.1735.374-.4935.374-.9598v-8.6702c0-.4555-.125-.77-.374-.9435-.239-.1844-.575-.2766-1.009-.2766h-.228c-.075 0-.113-.065-.113-.1952 0-.1409.038-.2114.113-.2114l3.905-.0163c1.041 0 1.637.0054 1.789.0163zm-.992 5.9537c1.127-.0217 1.919-.2874 2.375-.7971.455-.5097.683-1.2038.683-2.0822 0-.6723-.174-1.2037-.521-1.5941s-.748-.6561-1.204-.7971c-.444-.1518-.851-.2278-1.22-.2278-.39 0-.715.0705-.976.2115-.249.141-.374.4175-.374.8296v4.4734h.456c.39 0 .65-.0054.781-.0162zm6.383 5.9536c-.087 0-.13-.065-.13-.1952 0-.1409.043-.2114.13-.2114h.195c.315 0 .559-.0488.732-.1464.184-.0976.277-.2983.277-.6019l-.017-9.0607c0-.3362-.092-.5585-.276-.6669-.174-.1193-.45-.1844-.83-.1952-.108 0-.163-.0814-.163-.244 0-.0759.033-.1247.098-.1464l.488-.1139c1.399-.3145 2.174-.4826 2.326-.5043v10.9314c0 .3036.092.5043.277.6019.184.0976.434.1464.748.1464h.195c.076 0 .114.0705.114.2114 0 .1302-.038.1952-.114.1952zm13.647-1.3826c.032 0 .059.0108.081.0325.033.0217.049.0542.049.0976l-.016.0813c-.152.4338-.402.7754-.749 1.0248-.336.2386-.683.3579-1.041.3579-.737 0-1.209-.3741-1.415-1.1224-.412.3796-.878.6669-1.399.8621-.51.1953-1.019.2929-1.529.2929-.662 0-1.187-.1519-1.578-.4555-.379-.3145-.569-.7375-.569-1.2688 0-.423.103-.7863.309-1.0899.217-.3145.537-.5911.96-.8296.249-.141.526-.2495.829-.3254.315-.0867.776-.2006 1.383-.3416.824-.1952 1.323-.3199 1.496-.3741v-.7158c0-.5856-.021-1.0085-.065-1.2688-.043-.2711-.141-.4988-.292-.6832-.228-.2711-.57-.4067-1.025-.4067-.336 0-.608.0922-.814.2766-.206.1843-.379.5151-.52.9923-.087.3253-.217.5747-.391.7482-.173.1627-.374.244-.601.244-.228 0-.434-.0705-.619-.2114-.184-.1519-.276-.3471-.276-.5856 0-.2061.076-.4555.228-.7483.162-.3037.482-.5802.959-.8296.488-.2495 1.166-.3742 2.034-.3742.596 0 1.117.0868 1.561.2603.445.1627.781.3796 1.009.6507.184.2277.304.4663.358.7157.065.2494.097.5585.097.9272 0 .6832-.005 1.2255-.016 1.6267l-.016 1.9521c0 .7482.217 1.1224.651 1.1224.325 0 .596-.1844.813-.5531.032-.0542.07-.0813.114-.0813zm-5.108.7808c.325 0 .656-.0705.992-.2115.347-.141.656-.347.927-.6181-.021-.2169-.032-.3904-.032-.5206l.016-1.9845c-1.095.2602-1.903.5693-2.424.9272-.52.3578-.78.8079-.78 1.3501 0 .3037.108.5585.325.7646.228.1952.553.2928.976.2928zm15.152.2114c.076 0 .114.0705.114.2115 0 .1301-.038.1952-.114.1952h-3.969c-.076 0-.114-.0651-.114-.1952 0-.141.038-.2115.114-.2115h.212c.303 0 .536-.0488.699-.1464.174-.0976.26-.2982.26-.6018v-2.9281l-.016-1.2363c-.043-1.2796-.537-1.9195-1.48-1.9195-.391 0-.765.1193-1.123.3579-.347.2386-.65.5856-.911 1.0411l-.016 4.6849c0 .3036.087.5042.26.6018.174.0976.418.1464.732.1464h.179c.076 0 .114.0705.114.2115 0 .1301-.038.1952-.114.1952h-3.953c-.086 0-.13-.0651-.13-.1952 0-.141.044-.2115.13-.2115h.196c.303 0 .542-.0488.715-.1464.174-.0976.261-.2982.261-.6018l-.033-4.994c0-.3362-.087-.5531-.26-.6507-.163-.1084-.445-.1789-.846-.2114-.098-.0109-.146-.0976-.146-.2603 0-.0651.027-.1084.081-.1301.13-.0434 1.074-.2495 2.83-.6182v1.4478c.684-.9652 1.513-1.4478 2.489-1.4478.868 0 1.524.244 1.968.732.445.4772.684 1.0574.716 1.7406.011.2277.016.6886.016 1.3827 0 .8676-.01 1.8707-.032 3.0094 0 .3036.081.5042.244.6018.173.0976.417.1464.732.1464zm17.203 0c.043 0 .07.0217.081.0651s.017.0922.017.1464c0 .1301-.033.1952-.098.1952h-5.124c-.076 0-.114-.0651-.114-.1952 0-.141.038-.2115.114-.2115.987-.0216 1.48-.2765 1.48-.7645 0-.1193-.049-.3145-.146-.5856l-.83-2.4075h-4.213l-.765 2.1798c-.075.2602-.113.4554-.113.5856 0 .6615.531.9922 1.594.9922.076 0 .114.0705.114.2115 0 .1301-.038.1952-.114.1952h-4.083c-.076 0-.114-.0651-.114-.1952 0-.141.038-.2115.114-.2115.347 0 .683-.1084 1.008-.3253.326-.2277.586-.5964.781-1.1061.228-.5531 1.399-3.6438 3.514-9.2722l.293-.7808.959-.2765c.12 0 .196.0542.228.1626l.651 1.887c.401 1.1387.949 2.7166 1.643 4.7337.694 2.0062 1.106 3.1829 1.236 3.5299.163.4121.331.7212.504.9272.174.206.364.347.57.4229.216.0651.488.0976.813.0976zm-4.831-4.3595-1.822-5.303c-.271.6724-.927 2.44-1.969 5.303z"/><path d="m0 0h159.036v145.786h-159.036z" transform="translate(271.48 106.736)"/></g><g clip-path="url(#r)" fill="#f4d8b4"><rect height="5.16351" rx="2.58176" width="101.205" x="287.748" y="123.004"/><rect height="5.4223" rx="2.71115" width="126.502" x="287.748" y="133.59"/><rect height="5.4223" rx="2.71115" width="126.502" x="287.748" y="144.434"/><rect height="5.16351" rx="2.58176" width="61.9621" x="287.748" y="155.279"/></g><rect fill="#f4d8b4" height="4.13081" rx="2.0654" width="43.3735" x="329.312" y="176.709"/><rect fill="#ecbd85" height="11.3597" rx="5.67986" width="76.42" x="312.789" y="186.262"/><rect fill="url(#j)" height="22.8266" rx="11.4133" width="126.962" x="287.518" y="213.659"/><rect height="22.8266" rx="11.4133" stroke="url(#k)" stroke-width=".459596" width="126.962" x="287.518" y="213.659"/></g><rect height="223.054" rx="10.8446" stroke="#bac3a4" stroke-width="2.16867" width="159.036" x="271.48" y="29.4688"/></g><path d="m35.488 55.416c-.832 0-1.7387-.1173-2.72-.352-.9813-.2133-1.8987-.4907-2.752-.832-.256-.0853-.5227-.128-.8-.128-.32 0-.6293.096-.928.288-.2773.1707-.6613.4693-1.152.896l-1.472-6.24-.064-.256c0-.0427.0213-.0853.064-.128.064-.0427.1173-.0747.16-.096.064-.0213.1067-.0427.128-.064.0427-.0213.1067-.032.192-.032.128 0 .2453.0853.352.256 2.2827 3.6267 5.1627 5.44 8.64 5.44 1.3867 0 2.5813-.352 3.584-1.056 1.024-.704 1.536-1.792 1.536-3.264 0-.7893-.224-1.504-.672-2.144-.4267-.6613-1.0667-1.184-1.92-1.568-.8747-.4053-2.1333-.8747-3.776-1.408-1.344-.4053-2.4213-.8-3.232-1.184-1.408-.6827-2.4213-1.504-3.04-2.464-.5973-.96-.896-2.0373-.896-3.232 0-.896.2133-1.8453.64-2.848.4267-1.024 1.1733-1.9093 2.24-2.656s2.5067-1.12 4.32-1.12c.6827 0 1.344.0747 1.984.224.6613.1493 1.3973.3733 2.208.672.384.1067.6827.16.896.16.32 0 .6187-.0747.896-.224.2773-.1707.576-.448.896-.832l1.6 5.472.064.256c0 .1067-.096.2027-.288.288-.128.0427-.224.064-.288.064-.1067 0-.2133-.0747-.32-.224-.256-.4267-.7147-1.0027-1.376-1.728s-1.5467-1.408-2.656-2.048-2.3573-.96-3.744-.96c-1.28 0-2.2507.2773-2.912.832-.6613.5333-1.0987 1.1093-1.312 1.728-.192.6187-.288 1.12-.288 1.504 0 1.408.768 2.5173 2.304 3.328.448.2347 1.0027.4693 1.664.704.6827.2347 1.376.4587 2.08.672 1.9627.5973 3.4027 1.12 4.32 1.568 1.4933.7467 2.528 1.6427 3.104 2.688.5973 1.0453.896 2.1333.896 3.264 0 1.28-.3307 2.432-.992 3.456-.64 1.024-1.5787 1.8347-2.816 2.432-1.216.5973-2.6667.896-4.352.896zm16.8378.032c-1.344 0-2.368-.3627-3.072-1.088-.6827-.7467-1.0347-1.8347-1.056-3.264v-10.432h-2.72v-1.152c1.408-.3413 2.5386-.9813 3.392-1.92.8746-.9387 1.504-2.464 1.888-4.576h.672v6.496h4.096v1.152h-4.128v7.552c0 1.5573.0106 2.4533.032 2.688.0853 1.8773.8 2.816 2.144 2.816.4693 0 .864-.0747 1.184-.224.32-.1707.6613-.4587 1.024-.864.1066-.128.2026-.192.288-.192.1066 0 .2026.0533.288.16.1066.0853.16.1813.16.288 0 .0853-.0214.1493-.064.192-1.0454 1.5787-2.4214 2.368-4.128 2.368zm21.8985-3.2c.064 0 .1173.0213.16.064.064.0427.096.1067.096.192l-.032.16c-.2987.8533-.7894 1.5253-1.472 2.016-.6614.4693-1.344.704-2.048.704-1.4507 0-2.3787-.736-2.784-2.208-.8107.7467-1.728 1.312-2.752 1.696-1.0027.384-2.0054.576-3.008.576-1.3014 0-2.336-.2987-3.104-.896-.7467-.6187-1.12-1.4507-1.12-2.496 0-.832.2026-1.5467.6079-2.144.4267-.6187 1.0561-1.1627 1.888-1.632.4907-.2773 1.0347-.4907 1.6321-.64.6186-.1707 1.5253-.3947 2.72-.672 1.6213-.384 2.6026-.6293 2.944-.736v-1.408c0-1.152-.0427-1.984-.128-2.496-.0854-.5333-.2774-.9813-.576-1.344-.448-.5333-1.12-.8-2.016-.8-.6614 0-1.1947.1813-1.6.544-.4054.3627-.7467 1.0133-1.024 1.952-.1707.64-.4267 1.1307-.768 1.472-.3414.32-.736.48-1.1841.48-.4479 0-.8533-.1387-1.2159-.416-.3627-.2987-.544-.6827-.544-1.152 0-.4053.1493-.896.448-1.472.32-.5973.9493-1.1413 1.888-1.632.96-.4907 2.2933-.736 4-.736 1.1733 0 2.1973.1707 3.072.512.8746.32 1.536.7467 1.984 1.28.3626.448.5973.9173.704 1.408.128.4907.192 1.0987.192 1.824 0 1.344-.0107 2.4107-.032 3.2l-.032 3.84c0 1.472.4266 2.208 1.28 2.208.64 0 1.1733-.3627 1.6-1.088.064-.1067.1386-.16.224-.16zm-10.048 1.536c.64 0 1.2906-.1387 1.952-.416.6826-.2773 1.2906-.6827 1.824-1.216-.0427-.4267-.064-.768-.064-1.024l.032-3.904c-2.1547.512-3.744 1.12-4.768 1.824s-1.536 1.5893-1.536 2.656c0 .5973.2133 1.0987.64 1.504.448.384 1.088.576 1.92.576zm22.2872-14.592c.768 0 1.408.2133 1.92.64s.768.928.768 1.504c0 .4267-.16.7893-.48 1.088s-.7147.448-1.184.448c-.2773 0-.5333-.0533-.768-.16-.2133-.128-.48-.3093-.8-.544-.576-.448-1.0667-.672-1.472-.672-.4907 0-.992.2347-1.504.704s-.9813 1.0987-1.408 1.888l-.032 8.672c0 .5973.1707.992.512 1.184.3413.1707.8213.256 1.44.256h.352c.1707 0 .256.1387.256.416 0 .256-.0853.384-.256.384h-7.776c-.1493 0-.224-.128-.224-.384 0-.2773.0747-.416.224-.416h.384c.6187 0 1.088-.0853 1.408-.256.3413-.192.512-.5867.512-1.184l-.064-9.888c0-.6613-.1707-1.088-.512-1.28-.32-.192-.8747-.32-1.664-.384-.192-.0213-.288-.192-.288-.512 0-.1493.0533-.2453.16-.288.256-.0853 2.112-.4907 5.568-1.216v3.424c.6827-1.0027 1.4613-1.824 2.336-2.464s1.7387-.96 2.592-.96zm10.081 16.256c-1.344 0-2.368-.3627-3.072-1.088-.6827-.7467-1.0347-1.8347-1.056-3.264v-10.432h-2.72v-1.152c1.408-.3413 2.5387-.9813 3.392-1.92.8747-.9387 1.504-2.464 1.888-4.576h.672v6.496h4.096v1.152h-4.128v7.552c0 1.5573.0107 2.4533.032 2.688.0853 1.8773.8 2.816 2.144 2.816.4693 0 .864-.0747 1.184-.224.32-.1707.6613-.4587 1.0245-.864.106-.128.202-.192.288-.192.106 0 .202.0533.288.16.106.0853.16.1813.16.288 0 .0853-.022.1493-.064.192-1.0458 1.5787-2.4218 2.368-4.1285 2.368z" fill="#faeedc"/></g><path d="m0 0h560zm560 296c0 4.418-3.582 8-8 8h-544c-4.41828 0-8-3.582-8-8h4 552zm-560 4v-300zm560-300v300z" fill="#20917e" mask="url(#s)"/></svg>