<svg width="87" height="30" viewBox="0 0 87 30" fill="none" xmlns="http://www.w3.org/2000/svg">
<g clip-path="url(#clip0_8611_4370)">
<path d="M0.839844 0.501953V18.339C0.839844 25.0558 5.50855 29.4953 11.5972 29.4953C14.5591 29.4953 17.1983 28.3584 19.1059 26.3653V29.0132H23.3228V0.501953H19.0629V18.0872C19.0629 22.6094 16.0149 25.6638 12.0813 25.6638C8.10109 25.6638 5.10336 22.6886 5.10336 18.0872V0.505552H0.839844V0.501953ZM27.5182 0.501953V29.0132H31.5701V26.4049C33.4383 28.3189 36.0775 29.4989 38.9569 29.4989C40.382 29.5122 41.7957 29.2418 43.116 28.7034C44.4363 28.165 45.6371 27.3692 46.6488 26.3622C47.6606 25.3551 48.4632 24.1567 49.0104 22.8364C49.5575 21.516 49.8382 20.0999 49.8362 18.67C49.8429 17.2367 49.5659 15.8163 49.0213 14.4913C48.4767 13.1662 47.6754 11.9628 46.6637 10.9508C45.652 9.93878 44.4502 9.13836 43.1279 8.59591C41.8055 8.05347 40.389 7.77979 38.9605 7.79076C37.5917 7.78902 36.2365 8.0622 34.9747 8.59419C33.7128 9.12618 32.5698 9.90621 31.6132 10.8883V0.505552H27.5146L27.5182 0.501953ZM62.9064 7.83393C56.8572 7.83393 52.2745 12.7627 52.2745 18.6268C52.2745 24.8148 57.058 29.4557 63.2686 29.4557C67.0444 29.4557 70.1282 27.79 72.1972 25.0198L69.2354 22.8217C67.6935 24.8975 65.6639 25.8689 63.2686 25.8689C59.7796 25.8689 56.9827 23.3505 56.4126 19.9687H73.2551V18.6268C73.2551 12.4389 68.8732 7.83393 62.9064 7.83393ZM85.479 8.07857C83.2057 8.07857 81.5418 9.13627 80.5271 10.8056V8.24046H76.4715V29.0132H80.5665V17.195C80.5665 13.9787 82.5172 11.9065 85.1958 11.9065H86.899V8.07497H85.479V8.07857ZM62.8204 11.4172C65.8683 11.4172 68.4286 13.5326 69.117 16.7057H56.4914C57.2194 13.5326 59.776 11.4172 62.8204 11.4172ZM38.6808 11.4603C42.575 11.4603 45.7807 14.6371 45.7807 18.67C45.7883 20.5685 45.0451 22.3926 43.7141 23.7421C42.3832 25.0917 40.573 25.8565 38.6808 25.8689C37.7393 25.8708 36.8068 25.6857 35.937 25.3242C35.0672 24.9628 34.2774 24.4321 33.613 23.7629C32.9487 23.0936 32.4229 22.2991 32.0661 21.425C31.7094 20.5509 31.5286 19.6145 31.5343 18.67C31.5277 17.725 31.7076 16.788 32.0637 15.9131C32.4197 15.0382 32.945 14.2427 33.609 13.5725C34.273 12.9022 35.0627 12.3705 35.9326 12.008C36.8025 11.6455 37.7353 11.4594 38.6772 11.4603H38.6808Z" fill="#FAEEDC"/>
</g>
<defs>
<clipPath id="clip0_8611_4370">
<rect width="86.0592" height="28.9704" fill="white" transform="translate(0.839844 0.515625)"/>
</clipPath>
</defs>
</svg>
